<svg xmlns="http://www.w3.org/2000/svg" width="1500" height="340" viewBox="0 0 1500 340"><defs><style>.cls-1{fill:#f15a24;}</style></defs><title>Artboard 56</title><g id="Layer_1" data-name="Layer 1"><path class="cls-1" d="M87.47,152.57a58.11,58.11,0,0,1,6.21-2.44,15.72,15.72,0,0,1,5.25-.52,7.74,7.74,0,0,1,5.45,2.66,26.49,26.49,0,0,1,4.47,7.52,27,27,0,0,1,2.36,8.42,7.38,7.38,0,0,1-1.9,5.71,17.55,17.55,0,0,1-4,3.41,64.28,64.28,0,0,1-6.07,2.93Q72.63,192,46.36,204.67q3.73,7.72,7.48,15.46,16.72-8.08,33.6-15.77a60.51,60.51,0,0,1,6.19-2.53,16.19,16.19,0,0,1,5.2-.56q5.51.33,9.9,10.29,4.81,10.89-.69,15.76A37.87,37.87,0,0,1,99.81,232q-16.47,7.5-32.8,15.4L81,276.3a45.54,45.54,0,0,1,2.35,5.47,13.35,13.35,0,0,1,.39,4.73c-.18,3.49-3.72,6.9-10.58,10.3-7.52,3.74-12.87,4.06-16.11.87q-2.2-1.94-4.91-7.23L9.22,206.22Q5.29,198.5,7.15,194c1.25-3,4.94-6,11.1-9.09Q52.57,167.91,87.47,152.57Z"/><path class="cls-1" d="M182.58,220.63q22.9-9,46-17.32c3.74-1.34,6.61-1.9,8.59-1.7a6.59,6.59,0,0,1,4.72,2.58,29.66,29.66,0,0,1,4.77,13.64,5.94,5.94,0,0,1-1.62,4.53,21.06,21.06,0,0,1-8.14,4.7q-30.1,10.78-59.84,22.88c-7.71,3.13-13,3-16-.39-1.36-1.39-2.8-3.92-4.34-7.58l-36.49-87.19a41.89,41.89,0,0,1-2-5.52,12.35,12.35,0,0,1,0-4.86c.48-3.51,4.52-6.87,12.15-10,8.34-3.39,14.08-3.39,17.16-.1a29.56,29.56,0,0,1,4.14,7.87Z"/><path class="cls-1" d="M282.44,79.5c18.12-5.37,35.62-3.89,52,4.32s26.56,21.24,30.92,38.65,1.93,33.78-6.81,49.14S337,197,319.88,202.1s-33.48,3.72-49.47-4.16-26.94-19.76-32.52-36.07a62.28,62.28,0,0,1-3.23-26.82,59.22,59.22,0,0,1,7.79-24.37,69.08,69.08,0,0,1,16.86-19.15A68.37,68.37,0,0,1,282.44,79.5Zm-13.83,71.31c3.08,9.62,8.92,16.33,17.43,20.26s16.79,4.69,25,2.28,14.7-7.47,19.67-15.22,6.17-16.57,3.46-26.52-8.3-17-16.88-21.09-17.18-4.85-25.72-2.33-15.31,7.89-20.22,16S265.54,141.21,268.61,150.81Z"/><path class="cls-1" d="M526.28,29.13c8.77,1.55,13.42,4.62,14,9.11.19,1.46-.2,4.31-1.15,8.55q-11.7,49.11-21.29,98.34a16.79,16.79,0,0,1-.78,3q-.62,1.82-3.92,5.17a15.86,15.86,0,0,1-17.71,2.91,15.26,15.26,0,0,1-5.89-4.6q-15.19-27.12-31.16-54c-6.45,39-9,58.91-9.18,59.62a15,15,0,0,1-1,3.15,20.52,20.52,0,0,1-2.1,3.89,13.59,13.59,0,0,1-8.69,5.8,15.78,15.78,0,0,1-9.58-.57,14.53,14.53,0,0,1-5.84-3.94l-1.76-2.22Q393.35,121,364.48,79.51c-2.23-3.3-3.57-5.83-4-7.59-1.08-4.4,2.18-8.89,9.86-13.4a33.38,33.38,0,0,1,9.35-3.94A8.58,8.58,0,0,1,387,55.7a24.63,24.63,0,0,1,6,7.19Q409.36,88.32,425,114q4-29.42,8.65-58.85a16,16,0,0,1,7.61-11.53A21.81,21.81,0,0,1,448.83,41a15.63,15.63,0,0,1,9.38,1.13c3.07,1.34,5.14,2.85,6.2,4.5q15.87,27.14,31,54.55,5.27-29.81,11.26-59.6c.61-2.73,1.13-4.75,1.57-6.08a10.4,10.4,0,0,1,2.94-4.13,10.76,10.76,0,0,1,6-2.69A29,29,0,0,1,526.28,29.13Z"/><path class="cls-1" d="M592.2,115.7q27.39-2.82,54.85-4.67a50.06,50.06,0,0,1,6.17-.15A14.45,14.45,0,0,1,658,112.2q5,2.08,5.57,13,.67,11.88-5.68,14.3a30.58,30.58,0,0,1-9,1.61q-34.6,2.34-69.13,6.25c-8.13.92-13.14-.62-15.07-4.72-.92-1.72-1.63-4.54-2.11-8.48L551,40.31q-1.07-8.61,2.12-12.17c2.13-2.37,6.53-4,13.19-4.71q37.14-4.2,74.4-6.71a57.26,57.26,0,0,1,6.54-.17,16,16,0,0,1,5.11,1.3q5.25,2.07,5.86,12.94.67,11.88-6.08,14.32a34.46,34.46,0,0,1-9.59,1.64Q614,48.69,585.6,51.61q.87,8.53,1.76,17.08,18.14-1.87,36.31-3.33a57.88,57.88,0,0,1,6.36-.24,15.61,15.61,0,0,1,5,1.25q5.13,2,5.88,12.87.83,11.88-5.88,14.4a32.79,32.79,0,0,1-9.29,1.75q-17.65,1.41-35.28,3.23Q591.32,107.16,592.2,115.7Z"/><path class="cls-1" d="M774.37,116.67q2.57,6.17,2.52,8.88c-.07,4.31-3.78,7.87-11,10.74q-5.62,2.33-9,2.33a9.23,9.23,0,0,1-5.6-1.63,12,12,0,0,1-3.25-3.31c-1.19-2.14-5.73-12.4-14.05-30.67l-5.55.41q-11.28.18-22.56.51l.57,19.2a46.67,46.67,0,0,1-.09,5.87,13.34,13.34,0,0,1-1.54,4.55c-1.55,3.11-6,4.78-13.51,5.07-8.17.33-13.05-1.52-14.66-5.65a27.44,27.44,0,0,1-1.5-8.77Q672.73,77.09,670.38,30a43.53,43.53,0,0,1,0-5.88,12.45,12.45,0,0,1,1.57-4.58c1.61-3.14,6.46-4.92,14.54-5.24q20.44-.81,40.9-1.11c11.11-.17,22,3.42,32.34,10.72A39.9,39.9,0,0,1,772,38.26a41.42,41.42,0,0,1,4.54,20.13c-.2,12.81-5,23.26-14,31.46C765.08,95.88,769.09,104.81,774.37,116.67ZM704.92,73.85q11.67-.34,23.35-.52a18.52,18.52,0,0,0,10.56-3.86c3.52-2.52,5.27-6.26,5.25-11.25s-1.83-8.75-5.43-11.27a18.81,18.81,0,0,0-11.19-3.7q-11.72.18-23.43.52Q704.47,58.82,704.92,73.85Z"/><path class="cls-1" d="M936.38,48.64a41.49,41.49,0,0,1,2.49,20.48,42.15,42.15,0,0,1-7,19.3,40.87,40.87,0,0,1-13.63,12.77c-10.71,6.16-21.25,8.78-31.85,7.86q-11.16-1-22.33-1.77l-1.38,19.16a46.34,46.34,0,0,1-.68,5.84,13.58,13.58,0,0,1-2,4.37c-1.86,2.94-6.51,4.14-14,3.67-8.16-.5-12.82-2.83-14-7.1a27.7,27.7,0,0,1-.6-8.88q2.43-47.11,4.87-94.22a44.74,44.74,0,0,1,.59-5.85,12.54,12.54,0,0,1,2-4.4c1.92-3,6.93-4.23,15-3.74q20.25,1.26,40.45,3c11.08,1,21.53,5.62,31.13,13.93A39.17,39.17,0,0,1,936.38,48.64ZM900.21,76.33c3.76-2.15,5.89-5.69,6.37-10.66s-.93-8.89-4.27-11.76a18.79,18.79,0,0,0-10.77-4.81q-11.6-1-23.19-1.84l-2.16,30q11.47.83,22.94,1.82A18.69,18.69,0,0,0,900.21,76.33Z"/><path class="cls-1" d="M1021.27,33.55c18.52,3.06,33.54,12,44.63,26.54s14.58,30.68,10.9,48.26-13,31.23-27.52,41.25-30.35,13.5-47.88,10.59S969.91,149,959.09,134.91,943.7,105.39,945.8,88.28a62.89,62.89,0,0,1,8.76-25.55,59.05,59.05,0,0,1,17.5-18.53,68.43,68.43,0,0,1,23.34-9.9A67.48,67.48,0,0,1,1021.27,33.55ZM978,91.71c-1.44,10,.85,18.58,6.73,25.82s12.94,11.53,21.3,12.92,16.38-.32,24.2-5.12,12.74-12.23,14.65-22.37,0-18.93-5.93-26.33-13.27-11.85-22-13.3-17.1.43-25,5.6S979.38,81.73,978,91.71Z"/><path class="cls-1" d="M1263,94.81c7.29,5.24,10.18,10,8.74,14.34-.46,1.4-2.07,3.79-4.8,7.18q-32.15,39-62.41,79.07a17,17,0,0,1-2,2.4q-1.35,1.35-5.81,2.93a16.11,16.11,0,0,1-17.33-5.16,15.42,15.42,0,0,1-3.32-6.71q-1.89-31.06-4.57-62.19c-22.9,32.29-33.92,49-34.36,49.61a14.67,14.67,0,0,1-2.27,2.4,21,21,0,0,1-3.59,2.59,13.66,13.66,0,0,1-10.38,1.41,15.91,15.91,0,0,1-8.39-4.69,14.45,14.45,0,0,1-3.53-6.1c-.21-.92-.41-1.84-.62-2.77q-5.71-49.86-13.54-99.81c-.56-3.94-.66-6.8-.28-8.58,1-4.42,5.83-7,14.7-7.75a33.77,33.77,0,0,1,10.13.53,8.65,8.65,0,0,1,6.08,4.19,25,25,0,0,1,2.26,9.09q3.63,30,6.55,60,16.43-24.74,33.52-49.16a16,16,0,0,1,11.91-7,22,22,0,0,1,8,.92,15.91,15.91,0,0,1,8,5.12q3.29,3.84,3.64,6.77,2.47,31.35,4.19,62.64,17.8-24.49,36.3-48.65c1.74-2.19,3.11-3.78,4.09-4.78a10.55,10.55,0,0,1,4.47-2.43,11,11,0,0,1,6.66.24A29,29,0,0,1,1263,94.81Z"/><path class="cls-1" d="M1285,201.69q26.22,9.57,52.17,20.1a54.72,54.72,0,0,1,5.71,2.61,15.28,15.28,0,0,1,3.84,3.33q3.62,4.08-.58,14.12c-3.07,7.32-6.9,10.75-11.48,10.33a32.09,32.09,0,0,1-9-2.58q-32.7-13.28-65.87-25c-7.81-2.76-11.7-6.35-11.65-10.9-.09-1.94.5-4.79,1.79-8.55q15.27-44.71,30.55-89.44c1.87-5.47,4.28-8.81,7.26-10s7.67-.69,14.08,1.57q35.67,12.61,70.89,26.91a61.77,61.77,0,0,1,6.06,2.76,16.55,16.55,0,0,1,4.11,3.44q3.9,4.2-.31,14.23-4.59,11-11.85,10.17a35.86,35.86,0,0,1-9.51-2.79q-26.93-10.94-54.15-20.86-2.94,8.07-5.89,16.13,17.37,6.33,34.62,13.08a56.72,56.72,0,0,1,5.92,2.61,15.63,15.63,0,0,1,4,3.33q3.81,4.09-.27,14.18c-3,7.36-6.87,10.79-11.7,10.33a33.93,33.93,0,0,1-9.26-2.56q-16.75-6.54-33.63-12.7Z"/><path class="cls-1" d="M1451.77,283.9c-.22,4.46-.76,7.5-1.58,9.11-2,3.84-6.93,5.36-14.9,4.66-4.15-.3-7.26-.95-9.36-2a9.75,9.75,0,0,1-4.45-4,12.56,12.56,0,0,1-1.54-4.43c-.15-2.47.16-13.73.53-33.88l-5.29-2.12q-10.46-4.91-21-9.66l-7.91,17.51a46.29,46.29,0,0,1-2.66,5.23,13.17,13.17,0,0,1-3.41,3.4c-2.79,2.11-7.65,1.59-14.63-1.48-7.65-3.36-11.31-7.19-11-11.62a27.07,27.07,0,0,1,2.48-8.55l37.05-86.77a44,44,0,0,1,2.57-5.28,12.7,12.7,0,0,1,3.45-3.43c2.86-2.1,8.09-1.53,15.65,1.79q19.13,8.4,38.09,17.32c10.29,4.84,18.72,12.94,25.08,24.18a41,41,0,0,1,.34,38.58c-5.81,11.42-14.78,18.67-26.76,21.94C1452.32,261,1452.11,270.85,1451.77,283.9Zm-45.17-69.71q10.88,4.92,21.71,10a19.27,19.27,0,0,0,11.41,1.28c4.35-.69,7.61-3.26,9.78-7.75s2.16-8.69-.06-12.57a19.57,19.57,0,0,0-8.68-8.35q-10.86-5.1-21.77-10Z"/></g></svg>