<svg xmlns="http://www.w3.org/2000/svg" xmlns:xlink="http://www.w3.org/1999/xlink" width="1920" height="1080" viewBox="0 0 1920 1080"><defs><style>.cls-1{fill:none;}.cls-2{fill:#29cce2;}.cls-3{fill:#39b54a;}.cls-4{fill:#067027;}.cls-5{fill:#06c927;}.cls-6{clip-path:url(#clip-path);}</style><clipPath id="clip-path"><rect class="cls-1" y="-1107" width="1920" height="1080"/></clipPath></defs><title>Baggrund</title><g id="Layer_2" data-name="Layer 2"><rect class="cls-2" width="1920" height="1079"/></g><g id="Layer_1" data-name="Layer 1"><rect class="cls-3" y="269" width="1920" height="811"/><path class="cls-4" d="M1826.63,284.68A129.25,129.25,0,0,1,1853,208.15c-10.62,26.54-10.8,54.25-3.37,76.78Z"/><path class="cls-4" d="M1757.59,281.43a104.12,104.12,0,0,0-30.48-61.14c21.94,10.59,42.13,31,53.3,58.28Z"/><path class="cls-4" d="M1632.45,292.2a146.68,146.68,0,0,1,35-107.25c-19.62,34.35-22.49,73.72-12.11,105.32Z"/><path class="cls-4" d="M122.17,306a241.72,241.72,0,0,0-6-25.34A109.59,109.59,0,0,0,106.68,258,69,69,0,0,0,92,240a47.58,47.58,0,0,0-19.21-10.29c7.34-.16,15.36,1.93,23,5.93a75.58,75.58,0,0,1,20.94,16.64,122.83,122.83,0,0,1,16.06,23.44,271.66,271.66,0,0,1,12.05,26.09Z"/><path class="cls-4" d="M37.21,300.84a150.1,150.1,0,0,1,28.43-41.67,129.22,129.22,0,0,0-7.52,51.25Z"/><path class="cls-4" d="M196,273.62c6.2-8.29,1-29.82-3-47.29a299.12,299.12,0,0,0-18.22-52.54,298.07,298.07,0,0,1,29.38,49.8c2.1,4.45,4,9,5.94,13.57.93,2.3,1.86,4.61,2.74,6.94s1.76,4.69,2.55,7.15a64.49,64.49,0,0,1,3.29,16,40.93,40.93,0,0,1-.48,9.28,36.93,36.93,0,0,1-3.07,9.75Z"/><path class="cls-4" d="M248.17,301s0-.05,0,0l0,0v0l.92.4-.09,0-.17-.08-.66-.28h0c0-.07.08-.23.14-.5s.12-.6.16-1l.34-2.19.72-4.51c.2-1.51.56-3,.9-4.47l1-4.44c.75-2.94,1.7-5.82,2.55-8.73a134.2,134.2,0,0,1,70.55-78.92,124.62,124.62,0,0,0-45,53,117,117,0,0,0-9.18,31.4c-.27,2.67-.64,5.28-.81,7.91l-.16,3.93c-.05,1.31-.13,2.6-.05,3.9l.11,3.88.06,2a29.15,29.15,0,0,1-.17,3,22.81,22.81,0,0,1-.63,3.41,17.25,17.25,0,0,1-.65,2c-.27.72-.53,1.26-.83,1.88a17,17,0,0,1-5,5.9Z"/><path class="cls-4" d="M1342,938.89a68.42,68.42,0,0,1,38-57.39c-18.68,17.64-22.07,42.64-15,58.49Z"/><path class="cls-4" d="M1317.9,907.18a71.34,71.34,0,0,0-19.37-41.74c16.31,5.87,32.47,19.47,42.25,39.37Z"/><path class="cls-4" d="M612,700.24a150.79,150.79,0,0,1,43.95-107.91c-23,33.72-29.15,74.09-21,107.58Z"/><path class="cls-4" d="M658.1,685.49a87,87,0,0,0-8.52-40.33c12.92,9.14,24.41,23.24,31.51,41.07Z"/><path class="cls-4" d="M237,640.08A187,187,0,0,1,271.27,571a168.71,168.71,0,0,0-12,74.82Z"/><path class="cls-4" d="M1376.39,506.66a20.64,20.64,0,0,1-.52-2.91l-.06-.74,0-.81c0-.51,0-1,0-1.47,0-.93.12-1.71.2-2.37l.21-1.65a10.79,10.79,0,0,0,.15-1.55,12.41,12.41,0,0,0-.09-1.5,37.71,37.71,0,0,0-.87-4.44l-1.39-5.7-5.63-23-11.25-46,22.42,43.24,11.21,21.62,2.81,5.44a41.24,41.24,0,0,1,2.69,6.5,26.92,26.92,0,0,1,.94,4c.24,1.44.29,3.13.38,4.18a3.73,3.73,0,0,0,.49,2,.1.1,0,0,0,.09,0h0s.08,0-.11,0h.18l.08-.06h.09a1.42,1.42,0,0,0,.36,0Z"/><path class="cls-5" d="M1631.42,763.67A90.35,90.35,0,0,1,1685.19,681c-29.51,21.12-39,57.12-30.77,82.36Z"/><path class="cls-5" d="M1558.59,281.19a62.87,62.87,0,0,0-14.73-42.52c15.73,6.62,30.82,21.94,37.71,43.39Z"/><path class="cls-5" d="M1691.06,277.48a65.81,65.81,0,0,1,4.88-40.5c1.07,15.85,8.4,28.78,17.67,36Z"/><path class="cls-5" d="M743.93,286.84h0c0,.25,0,.2-.08-.2a18.55,18.55,0,0,0-2-4.17l-8.33-13.25-16.91-26.86,26.64,20.73,6.66,5.19,3.33,2.59c1.12.89,2.19,1.66,3.38,2.69a28.34,28.34,0,0,1,6.69,8,18.33,18.33,0,0,1,2.12,6.82,19,19,0,0,1-.68,7.71Z"/><path class="cls-5" d="M841.32,273.39a114.38,114.38,0,0,1,37.28-54.47c-12.66,20-17.33,42.16-15.35,61.39Z"/><path class="cls-5" d="M474.92,1017.47a24.62,24.62,0,0,0,1.84-13.32,40.11,40.11,0,0,0-4.84-14.61,72.85,72.85,0,0,0-10.29-13.82c-4.1-4.48-8.75-8.84-13.62-13.37,6.17,3.13,12.14,6.08,17.86,9.48A80.92,80.92,0,0,1,482,984a52.33,52.33,0,0,1,11.91,18.21,44.76,44.76,0,0,1,2.77,11.8,41.35,41.35,0,0,1-.92,13.27Z"/><path class="cls-5" d="M648.1,725a45.38,45.38,0,0,1,25.71-27.36c-9.25,12.08-9.28,26.42-3.9,34.67Z"/><path class="cls-5" d="M284.34,672.18a40.67,40.67,0,0,0-12.48-26.66c12.49,1.21,26.78,9.79,35.44,25.24Z"/><path class="cls-5" d="M156.66,309.78a14.69,14.69,0,0,0,2.93-5.07,24.16,24.16,0,0,0,1.23-6.87,47.16,47.16,0,0,0-2.59-16.34c-1.92-5.84-4.66-12-7.32-18.84s-5.22-14.42-6.14-22.94c2.84,8.31,7.17,14.93,11.5,20.86s8.89,11.33,12.88,17.32a58.31,58.31,0,0,1,8.9,20.69,39.86,39.86,0,0,1,.52,12.81,35,35,0,0,1-4.78,13.73Z"/><path class="cls-5" d="M289.14,277.19a123.48,123.48,0,0,1,50.14-39c-16.79,15.43-27.43,34.43-31.79,52.92Z"/><path class="cls-5" d="M1170.13,638.19a38.6,38.6,0,0,1,1-13.69,46.62,46.62,0,0,1,4.91-11.88,64.12,64.12,0,0,1,15.53-17.68,173.4,173.4,0,0,1,17.18-11.64,132.34,132.34,0,0,0,14.71-10.06c-3,5-7.2,9.93-11.68,15a174,174,0,0,0-13,15.73,47.13,47.13,0,0,0-7.78,17.34,24.15,24.15,0,0,0-.32,8.15,14.58,14.58,0,0,0,2.36,6.26Z"/><polygon class="cls-5" points="1133.71 586.59 1105.54 532.51 1154.11 575.96 1133.71 586.59"/><path class="cls-4" d="M1855.72,1041.06a87.49,87.49,0,0,1-5.72-94.45c-10.2,33.3,3.41,66.13,24.09,80.61Z"/><path class="cls-4" d="M93.19,1030.15c5.79-11.27,7.26-25,4.6-37.89s-9.37-25-19.13-33a54.48,54.48,0,0,1,17.23,11.85A68.24,68.24,0,0,1,109.06,990a74.19,74.19,0,0,1,6.73,23.87,72.07,72.07,0,0,1-2.11,26.79Z"/><path class="cls-5" d="M1870.89,1056.07a247.66,247.66,0,0,0,9.45-58.29,246.93,246.93,0,0,1,12.66,64.65Z"/><path class="cls-5" d="M25.17,980.81a15,15,0,0,0,1.27-5.1c.27-2.35.3-5.33.44-8.77,0-.86.09-1.77.15-2.69l.28-2.83c.08-.95.23-1.88.38-2.81s.28-1.87.47-2.8a76.72,76.72,0,0,1,3-10.87A74.24,74.24,0,0,1,58,909.58,66.17,66.17,0,0,0,42,948.85a61.06,61.06,0,0,0,.29,9.7c.08.79.23,1.58.34,2.35s.23,1.53.41,2.29l.5,2.24.59,2.27a82.32,82.32,0,0,1,2.34,10.17,31.41,31.41,0,0,1-.83,13.46Z"/><path class="cls-5" d="M48.24,1062.88A94.82,94.82,0,0,1,54.76,1007c-.76,20.57,5.88,38.93,16.08,51.57Z"/><g class="cls-6"><path class="cls-5" d="M797.36,7.82c4.24-19.1,5.54-38.94,4.91-58.92s-3.1-40.15-6.17-60.41-6.76-40.66-9.85-61.37-5.6-41.78-6.16-63.21c2.48,21.38,6.88,42.05,11.85,62.36s10.52,40.31,15.53,60.5,9.46,40.59,12,61.6,3.18,42.63.31,64.42Z"/><path class="cls-5" d="M840.82,4.78c10.81-33,19.57-66.87,27.61-101s15.38-68.6,23.39-103.06,16.73-69,27.57-103,23.84-67.59,40.27-99.67c-14.72,33-25.86,67-34.8,101.41S909.14-231.44,903-196.69s-11.57,69.6-17.8,104.42S872-22.62,862.68,11.94Z"/><path class="cls-5" d="M690.15,41.15a86.81,86.81,0,0,0,9.73-22.79A121.89,121.89,0,0,0,703.78-7c.93-17.46-1-35.5-3.95-53.6-.71-4.52-1.6-9.11-2.41-13.67s-1.61-9.13-2.55-13.7c-1.83-9.12-3.61-18.25-5.63-27.37-3.87-18.25-8.11-36.5-12.29-54.81-8.38-36.62-16.82-73.5-22.69-111.15-6.08-37.56-9.07-76-7.44-114.58.29,38.65,5.19,76.68,13.12,113.69,7.72,37.08,18,73.3,28.22,109.47,5.11,18.1,10.29,36.17,15.14,54.37,2.49,9.08,4.77,18.23,7.1,27.37,1.17,4.57,2.18,9.18,3.28,13.77s2.2,9.19,3.17,13.85c4,18.57,7.1,37.66,7,57.46a141,141,0,0,1-3.19,30,108.22,108.22,0,0,1-11,29.2Z"/><path class="cls-5" d="M563.43,22.56a188.62,188.62,0,0,1-31.67-40,223.83,223.83,0,0,1-20.65-46.1,268.31,268.31,0,0,1-10.72-48.95,303,303,0,0,1-2-49.82c1.34-33.1,7.38-65.59,15.53-97.07s18.44-62.16,28.65-92.5c-8.39,30.95-16.84,62.2-23.08,93.94s-10.23,64-9.61,96.1,6.29,63.83,17.68,93A204.44,204.44,0,0,0,549-27.71,166.61,166.61,0,0,0,579.31,5.92Z"/><path class="cls-5" d="M372.48,4.85a303.86,303.86,0,0,0,47.78-89.93c1.38-4,2.56-8.13,3.79-12.21s2.27-8.22,3.21-12.37,1.77-8.35,2.62-12.53,1.75-8.35,2.24-12.6l1.78-12.7,1.13-12.8c.47-4.25.53-8.55.72-12.84s.45-8.57.33-12.87L436-198.9l-.61-12.92-.15-3.22-.08-1.62-.14-1.61-.56-6.46-.57-6.45c-.09-1.08-.17-2.15-.29-3.23l-.4-3.22-1.59-12.89c-.6-4.29-1.32-8.57-2-12.85-.35-2.14-.65-4.29-1-6.43l-1.2-6.41-1.2-6.4c-.4-2.14-.79-4.28-1.27-6.4l-2.74-12.77c-.92-4.26-2-8.49-3-12.74l-1.52-6.36L416-327.22c-1.11-4.23-2.19-8.46-3.34-12.68-4.66-16.87-9.74-33.66-15.05-50.42,6.22,16.47,12.23,33,17.82,49.66,1.39,4.17,2.7,8.36,4.05,12.54l2,6.28,1.89,6.31c1.23,4.21,2.56,8.41,3.72,12.64l3.47,12.72c.6,2.12,1.11,4.25,1.63,6.39l1.56,6.4,1.57,6.41c.5,2.14.93,4.3,1.4,6.45.9,4.3,1.86,8.6,2.71,12.92l2.33,13,.59,3.26c.18,1.09.31,2.18.47,3.27l.94,6.55.93,6.55.23,1.64.17,1.65.34,3.29,1.34,13.2.8,13.26c.35,4.42.29,8.85.38,13.29s.22,8.9,0,13.33l-.46,13.36-1.15,13.34c-.28,4.47-1,8.88-1.62,13.32s-1.16,8.91-2.06,13.31-1.75,8.81-2.69,13.22-2.09,8.77-3.32,13.11a323.27,323.27,0,0,1-45.95,98.56Z"/><path class="cls-5" d="M238.33,7.81A194.84,194.84,0,0,0,258.59-28,261,261,0,0,0,272-67.62c7-27.24,10.42-55.63,12.47-84.28s2.89-57.9,5.26-87.33,6.3-59.22,14.68-88.33c-6.53,29.65-8.5,59.44-8.95,88.79s.64,58.49.48,87.68-1.73,58.54-7.23,87.76A278.94,278.94,0,0,1,277-20a215.5,215.5,0,0,1-20,41.23Z"/><path class="cls-5" d="M128.86,12.4A432.77,432.77,0,0,1,98.45-79.67a569,569,0,0,1-11.66-95.71,823.26,823.26,0,0,1,2-95.85c2.41-31.79,6.28-63.38,11-94.76-2.78,31.66-4.74,63.44-5.23,95.2a816.24,816.24,0,0,0,3.71,94.94,553,553,0,0,0,17,92.57,411.46,411.46,0,0,0,34.4,86Z"/><path class="cls-5" d="M198.61,7.65c.58-15.46-1.47-31.47-3.77-48-1.15-8.26-2.35-16.69-3.24-25.31a238.34,238.34,0,0,1-1.39-26.3,273.61,273.61,0,0,1,5.58-52,505.79,505.79,0,0,1,12.82-49.76,505.69,505.69,0,0,0-7.18,50.87,263.81,263.81,0,0,0,.28,51c1.76,16.79,6,32.86,10.21,49.19s8.4,33.1,9.68,51.24Z"/><path class="cls-5" d="M34.43-15.85s0,0,0,0-.08,0-.11,0l-.06,0,0,0c1.11,2.08.27.5.5.93L34.67-15c-.09-.17-.18-.33-.28-.49a2.65,2.65,0,0,0-.2-.31s0,0,0,0a.35.35,0,0,0,.08-.05l.14-.13a8.7,8.7,0,0,0,.79-.84,19.91,19.91,0,0,0,2-3.1c.17-.3.32-.62.48-.94.08-.14.18-.37.28-.58l.29-.64,1.18-2.57,2.37-5.13c.8-1.7,1.47-3.47,2.21-5.2l2.19-5.21c.69-1.76,1.34-3.53,2-5.29A342.28,342.28,0,0,0,61.4-88.89c6.91-29.56,10.27-60,10.93-90.66S71-241,67.64-271.7s-8.26-61.46-13.42-92.25C61.27-333.48,68-303,73.35-272.34s9.23,61.71,10.47,93A452.49,452.49,0,0,1,78.2-85,358.64,358.64,0,0,1,67.06-38.34c-.6,1.92-1.18,3.85-1.81,5.76l-2,5.71c-.68,1.89-1.3,3.82-2,5.7L59-15.52,57.9-12.7c-.2.5-.34.9-.59,1.47s-.48,1.11-.75,1.67a41.57,41.57,0,0,1-4,6.78A25.86,25.86,0,0,1,45.21,4a24.17,24.17,0,0,1-2.79,1.39,18.57,18.57,0,0,1-2.77.87,18.49,18.49,0,0,1-2.87.48c-1,.11-2,0-2.94.05Z"/><path class="cls-5" d="M1481.63,5.14a104,104,0,0,1-21-67.24,104,104,0,0,1,27.05-65c-13.44,20.34-18.42,44.11-15.56,65.56s13.52,40.37,27.81,52.76Z"/><path class="cls-5" d="M1789-16.86a38.86,38.86,0,0,0,12.14-8.26,38.7,38.7,0,0,0,4.68-5.69,45.62,45.62,0,0,0,3.66-6.69,68.39,68.39,0,0,0,4.65-15.71c.53-2.79.83-5.71,1.19-8.6l.36-4.38c.11-1.46.13-2.94.2-4.41a162.3,162.3,0,0,0-.48-17.87c-.49-6-1.28-12.06-2.26-18.14-1.94-12.15-4.73-24.41-7.56-36.86,4.7,12,9.37,23.86,13.24,36,1.94,6,3.71,12.15,5.18,18.35a172.39,172.39,0,0,1,3.37,18.94c.17,1.61.38,3.22.5,4.84l.33,4.88c.08,3.26.21,6.55.07,9.87a81.57,81.57,0,0,1-3,20.18,61.62,61.62,0,0,1-3.89,10.05,56.77,56.77,0,0,1-5.94,9.49,59.76,59.76,0,0,1-17.36,15.21Z"/><path class="cls-5" d="M1849.36-17.5s0,0,0,0h0l0,0h0c-.13.64,0,.15-.06.29l0-.08c0-.09,0-.27,0-.22s0,0,0,0a2.75,2.75,0,0,0,1.21-.26c.63-.17,2.22-1.56,3.56-4.26a37.28,37.28,0,0,0,2-4.78c.63-1.86,1.19-3.9,1.8-5.84s1.06-4,1.48-6,.89-4,1.18-6.1c2.79-16.4,2.31-33.62.14-50.82s-6.23-34.5-10.45-52.08-8.63-35.53-11.51-54.12c9.56,36.63,24.91,69.21,33.37,104.74,4.15,17.72,6.72,36.17,5.46,55.15-.1,2.38-.41,4.74-.64,7.12s-.68,4.74-1,7.13-.89,4.72-1.46,7.14a52.37,52.37,0,0,1-2.4,7.63,32.89,32.89,0,0,1-4.59,8c-.51.66-1.08,1.29-1.66,1.92a22.08,22.08,0,0,1-2,1.84A23.41,23.41,0,0,1,1859.05,2a24.13,24.13,0,0,1-5.37,2,22.77,22.77,0,0,1-6,.68c-.52,0-1.07,0-1.62-.09a16.45,16.45,0,0,1-1.66-.22c-.56-.11-1.13-.21-1.68-.35s-1.07-.31-1.6-.48a21.65,21.65,0,0,1-5.94-3.16Z"/><path class="cls-5" d="M1626.55,7.74C1621-11,1615.46-30,1610.84-49.4a372.9,372.9,0,0,1-9.69-59.65,254.41,254.41,0,0,1-.42-30.63c.13-5.11.67-10.18,1.07-15.27.25-2.53.6-5.05.9-7.58l.46-3.79.6-3.77,1.22-7.53,1.48-7.47c.26-1.24.47-2.49.76-3.73l.87-3.7c.6-2.46,1.13-4.94,1.78-7.39,1.33-4.88,2.58-9.79,4.12-14.6s3.08-9.62,4.7-14.4c3.4-9.49,7-18.9,11.12-28.07l1.5-3.46,1.59-3.41,3.18-6.83c2.26-4.47,4.4-9,6.79-13.42a577.56,577.56,0,0,1,30.62-51.38c22-33.1,46.47-64.07,70.71-94.74-22.74,31.86-45.68,64-65.92,97.92a568.18,568.18,0,0,0-27.77,52.2c-2.13,4.44-4,9-6,13.48l-2.79,6.83-1.38,3.41-1.31,3.45c-3.57,9.14-6.63,18.48-9.48,27.83-1.34,4.71-2.73,9.4-3.86,14.15s-2.23,9.5-3.28,14.26c-.51,2.38-.9,4.78-1.35,7.17l-.66,3.59c-.22,1.19-.37,2.4-.56,3.6l-1.06,7.2-.81,7.23-.39,3.61-.26,3.62c-.16,2.41-.38,4.82-.49,7.23-.14,4.83-.41,9.64-.29,14.45a239,239,0,0,0,1.83,28.71A356,356,0,0,0,1630.42-54c5.39,18.5,11.75,36.81,18.2,55.28Z"/><path class="cls-5" d="M1395.18-10.87c21-28.11,36.76-60.19,47.45-93.89a401.36,401.36,0,0,0,18-104.63c1.48-35.6-1.22-71.42-6.86-106.84s-14.21-70.5-24.52-105.12c12.15,34.07,22.6,68.76,30.2,104.21s12.27,71.65,12.67,108.23a414.74,414.74,0,0,1-13,109.37c-9.38,35.89-24.25,70.88-45.47,102.44Z"/><path class="cls-5" d="M1534.94,5.4a364.85,364.85,0,0,1-8.69-240.52c-17.1,80.46-5.1,163.73,30.09,232.09Z"/><path class="cls-5" d="M1222.6-6.82c20.81-27.46,37.94-57.75,51.8-89.52a584.21,584.21,0,0,0,32.55-99,858.73,858.73,0,0,0,17.39-103.46c3.87-34.9,6.12-70.06,7.73-105.34.3,35.36,0,70.69-2,106a870.75,870.75,0,0,1-11.92,105.48,596.7,596.7,0,0,1-27.93,103.23,456.73,456.73,0,0,1-49.27,96.51Z"/><path class="cls-5" d="M627.63,4.92A50.16,50.16,0,0,1,612-9a61.13,61.13,0,0,1-9-17.81,76.63,76.63,0,0,1-3.44-18.77,83.83,83.83,0,0,1,1-18.79c2-12,6-23.12,10.22-33.45s8.7-20.08,12.18-29.68c-1.68,10.25-4.47,20.93-6.85,31.85S611.85-73.51,612-62.48a65.24,65.24,0,0,0,7.53,30.41A40.7,40.7,0,0,0,628.19-21,27.19,27.19,0,0,0,639-15.1Z"/><path class="cls-5" d="M879-19.5s0,0,0,0a3.51,3.51,0,0,0,.37-.29,16.26,16.26,0,0,0,2.48-3.36c.47-.81.93-1.64,1.49-2.76l1.6-3.15c1.09-2.1,2-4.27,3.05-6.39A194.54,194.54,0,0,0,897.71-62a193.12,193.12,0,0,0,7.44-56,195.48,195.48,0,0,1,3.62,59.14,207.11,207.11,0,0,1-5.07,30.55c-.68,2.52-1.28,5.09-2,7.61l-1.13,3.8c-.34,1.23-.83,2.63-1.37,4A31.59,31.59,0,0,1,894-4,22.19,22.19,0,0,1,888.91.46,21.12,21.12,0,0,1,882,3.23Z"/><path class="cls-5" d="M1184.14-12.75a173.45,173.45,0,0,0,36.91-96.36c5.53,35.27-.25,74.79-18.89,110.65Z"/><path class="cls-5" d="M1346-10.77c13.43-18.8,20.51-42.22,20.84-65.65s-6-47-18.89-66.25a111.65,111.65,0,0,1,20,30,129.1,129.1,0,0,1,10.44,36.44,134.69,134.69,0,0,1-.55,39.55,128.9,128.9,0,0,1-13.06,39.28Z"/><path class="cls-4" d="M1052.27,9c49.8-130.46,56.56-277.11,19-411.6,45,132.42,46.9,281.89,2.49,419.8Z"/><path class="cls-4" d="M1109.29,2.61c34.5-23,62.22-56.08,80.24-93.66s26.52-79.86,22.91-121.18c14.91,82.09-18.21,176.36-90.38,234Z"/><path class="cls-4" d="M1284.94,19a34.73,34.73,0,0,0,14.44-11.87,58.34,58.34,0,0,0,8.92-18.87,114.59,114.59,0,0,0,3.52-22.54c.56-7.95.69-16.23,1.06-24.83.08-2.15.22-4.32.37-6.49l.44-6.51c.44-4.33.75-8.67,1.35-13,1-8.64,2.51-17.2,4.17-25.73a342.61,342.61,0,0,1,14.29-50,349.78,349.78,0,0,1,50-90.88,335.92,335.92,0,0,1,74.87-71.94,332.54,332.54,0,0,0-70.3,75.43,340.34,340.34,0,0,0-43.75,91.38,327.75,327.75,0,0,0-11,48.92c-1.11,8.26-2.1,16.51-2.56,24.79-.34,4.13-.39,8.27-.58,12.4l-.05,6.2c0,2.06,0,4.12,0,6.2.13,8.29.48,16.73.35,25.4a132.1,132.1,0,0,1-2.77,26.62,78.58,78.58,0,0,1-11,26.27,61.25,61.25,0,0,1-9.81,11.5,53.21,53.21,0,0,1-13.18,8.82Z"/><path class="cls-4" d="M1463.9,23.12a106.36,106.36,0,0,0,17-16.57,119.81,119.81,0,0,0,13.18-20.11,184.36,184.36,0,0,0,10-22.74q1.08-3,2.1-6l1.94-6.06c1.35-4,2.43-8.12,3.6-12.2a336.32,336.32,0,0,0,9.47-50.08,398.64,398.64,0,0,0,2.19-51.17,486.34,486.34,0,0,0-4-51.34q-3.46-25.59-9.2-50.91c-3.84-16.85-8.33-33.59-13.36-50.19s-10.66-33-16.67-49.36q10.37,24,19.42,48.53c6,16.38,11.41,33,16.21,49.76s8.85,33.82,12.15,51a495.12,495.12,0,0,1,7,52.22,409.35,409.35,0,0,1,.59,53,351,351,0,0,1-7.1,53c-1,4.37-1.92,8.77-3.12,13.1l-1.71,6.53q-.91,3.24-1.91,6.5a202.67,202.67,0,0,1-9.71,25.71,139.69,139.69,0,0,1-14.31,24.38A128.54,128.54,0,0,1,1478,41.3Z"/><path class="cls-4" d="M1667,38.5a131.46,131.46,0,0,1-2.28-31.18,167.58,167.58,0,0,1,4.43-30.3,268.06,268.06,0,0,1,8.66-28.53c.41-1.16.84-2.29,1.27-3.44l.63-1.72.34-.9a11.17,11.17,0,0,1,.66-1.59L1684-65.8l6.41-12.8c17.22-34.08,35-67.8,53.12-101.34C1779.76-247,1817-313.34,1852.46-380.4c-32.12,68.86-66,137.15-98.77,205.91-16.36,34.4-32.43,68.91-47.84,103.66l-5.73,13-2.79,6.39-1.92,6.21a247.45,247.45,0,0,0-6.67,26.84,146.16,146.16,0,0,0-2.47,26.66A108.73,108.73,0,0,0,1689.55,34Z"/><path class="cls-4" d="M1514.06,47a52.45,52.45,0,0,0,14.08-16.3c.51-.77.88-1.68,1.33-2.52s.87-1.68,1.28-2.56l1.15-2.68c.39-.88.77-1.77,1.09-2.72.67-1.86,1.39-3.69,2-5.64l.89-2.88.78-3c4.17-15.82,5.61-33.2,7.72-50.92l12.1-105.65,24.2-211.31-12.77,212.62-6.39,106.3c-.56,8.87-1,17.67-1.71,26.71a220.11,220.11,0,0,1-3.68,27.33l-.73,3.45-.87,3.46c-.55,2.3-1.3,4.6-2,6.9-.33,1.16-.76,2.3-1.19,3.45L1550,34.47c-.46,1.14-1,2.26-1.49,3.4s-1,2.28-1.6,3.38a74.22,74.22,0,0,1-19.26,24.26Z"/><path class="cls-4" d="M1828.17,5.23A293,293,0,0,0,1852.26-36c3.47-7.18,6.63-14.53,9.54-22s5.46-14.94,7.65-22.56a238.4,238.4,0,0,0,8.76-46.51,263.42,263.42,0,0,0-.66-47.54c-3.13-31.9-11-63.67-18.8-95.88-3.91-16.12-7.81-32.38-11.11-48.92a444.5,444.5,0,0,1-7.39-50.45c9.62,68.27,38.35,128.39,48.75,194.12a275.34,275.34,0,0,1,3.53,49.87A254.08,254.08,0,0,1,1886-75.73c-1.88,8.26-4.2,16.43-6.8,24.52s-5.56,16.05-8.82,23.93A314.48,314.48,0,0,1,1847,18.45Z"/><path class="cls-4" d="M1168.37,49.57a95.32,95.32,0,0,1-20.81-20.37,114,114,0,0,1-14-24.81C1126.33-13,1122.94-31.12,1121.43-49a267.41,267.41,0,0,1-.83-26.81c.11-4.43.34-8.79.51-13.19l.28-6.58.52-6.55a520.59,520.59,0,0,1,6.52-52.08c5.94-34.43,14.85-68.09,25-101.14,5.09-16.53,10.57-32.88,16.13-49.18s11.35-32.45,17.11-48.6c-4.86,16.47-9.7,33-14.39,49.54s-9.21,33.2-13.35,49.94c-8.29,33.46-15.25,67.3-19.18,101.4a508.41,508.41,0,0,0-3.52,51.18l-.14,6.39.08,6.39c.09,4.26.09,8.51.23,12.74a252.19,252.19,0,0,0,2.21,25.13c2.34,16.53,6.48,32.74,13.48,47.09a92.46,92.46,0,0,0,12.69,19.58,72.61,72.61,0,0,0,16.9,14.59Z"/><path class="cls-4" d="M1189.77,34.57a156.33,156.33,0,0,0,29-37.07A206.19,206.19,0,0,0,1229.44-24c1.54-3.73,3.13-7.44,4.5-11.27s2.74-7.64,4-11.5c2.51-7.76,4.81-15.62,6.8-23.61s3.81-16,5.46-24.17c3.29-16.3,5.9-32.73,8-49.22a691.05,691.05,0,0,0-3.81-198.82,695.9,695.9,0,0,1,15.22,200.25c-1.2,16.89-2.91,33.79-5.33,50.62-1.22,8.42-2.56,16.84-4.22,25.23s-3.55,16.76-5.74,25.09c-1.15,4.16-2.27,8.33-3.62,12.44s-2.72,8.24-4.16,12.35a225.1,225.1,0,0,1-10.42,24.13,177.3,177.3,0,0,1-30.8,44Z"/><path class="cls-4" d="M918.41,55.74c-10.18-15.08-20.14-30.45-29.25-46.5-2.23-4-4.53-8-6.64-12.17C881.45-5,880.36-7,879.31-9.1l-3.06-6.26-1.52-3.14-1.44-3.18-2.88-6.38-2.67-6.49-1.33-3.25c-.43-1.09-.82-2.2-1.23-3.3l-2.43-6.61c-.77-2.22-1.46-4.48-2.19-6.72-1.53-4.45-2.66-9.06-3.94-13.6a218.17,218.17,0,0,1-5.23-28L851-99.6l-.21-1.78-.14-1.78-.49-7.15-.2-7.15c0-1.2,0-2.39,0-3.58l.06-3.57A223.73,223.73,0,0,1,852.43-153c5.73-37.51,20.47-72.94,40.15-104.51s44.14-59.63,70-85.42c-24.54,27.14-47.37,56.33-65.15,88.46s-30.12,67.24-33.66,103.19a211,211,0,0,0-.89,26.93L863-121c0,1.12.08,2.23.19,3.34l.54,6.67.82,6.63.21,1.66.29,1.64.58,3.29a202.52,202.52,0,0,0,6.27,25.8c1.44,4.19,2.7,8.42,4.37,12.52.8,2.06,1.56,4.13,2.39,6.17l2.63,6.08c.44,1,.85,2,1.31,3l1.43,3,2.84,6L890-29.3l1.52,2.94,1.61,2.9,3.22,5.78c1.1,1.92,2.26,3.81,3.38,5.71,2.22,3.81,4.64,7.53,7,11.28,9.55,14.9,20,29.28,30.78,43.52Z"/><path class="cls-4" d="M764.87,26.56a708.67,708.67,0,0,0,16.88-352.21c31.67,114.72,34.1,239.53,5.09,359Z"/><path class="cls-4" d="M630.64,20.46C640.46,13.62,648.18,3.55,654.3-8s10.82-24.58,15.41-38l3.49-10.15,3.54-10.2c2.45-6.76,4.82-13.56,7.36-20.29,4.95-13.52,10.21-26.92,15.56-40.28a1474.78,1474.78,0,0,1,73.91-156,1467.27,1467.27,0,0,0-63.25,160.3Q697-81.79,686-40.43c-3.75,13.86-7.72,28-14,41.82a117.43,117.43,0,0,1-11.49,20.22,87.37,87.37,0,0,1-16.77,17.71Z"/><path class="cls-4" d="M549,27.58c11.33-25.27,18.51-52.45,22.32-80.18s4.34-56.06,2.49-84.26-6-56.46-11.35-84.57-11.84-56.15-18.37-84.32c8.4,27.74,16.77,55.34,24,83.25s13.37,56.14,17.18,84.88a430.86,430.86,0,0,1,3.12,87.38C586.32-20.89,580.61,8.64,570,37Z"/><path class="cls-4" d="M431.65,33.27C409.82-90.89,435-222.33,501.24-329.61,441.54-218.3,425.87-87.82,454.3,29.28Z"/><path class="cls-4" d="M299.56,37.68c51-81.35,70.31-182.33,52.91-276.76,24.93,93,14.19,198.49-33.42,289Z"/><path class="cls-4" d="M265.22,4.53A351,351,0,0,1,253.87-71a487.87,487.87,0,0,1,2.84-75.65c5.54-50,17-98.66,28.94-146.61-8.25,48.87-15.89,98.36-17.51,147.87a472.09,472.09,0,0,0,3,73.61A330.1,330.1,0,0,0,287.43-1.43Z"/><path class="cls-4" d="M105.65,19.18A70.46,70.46,0,0,0,119.9,3.38a139.46,139.46,0,0,0,11-20.12c1.63-3.6,3.23-7.28,4.74-11l4.46-11.34,2.24-5.67c.75-1.88,1.37-3.82,2.06-5.73L148.44-62c1.41-3.81,2.51-7.73,3.75-11.6l3.62-11.64L159-97c1-3.93,2.21-7.83,3.07-11.8,1.81-7.93,3.86-15.8,5.3-23.8l2.36-12c.7-4,1.31-8,2-12,2.68-16,4.34-32.23,5.69-48.43.21-2,.26-4.06.39-6.09l.32-6.09.32-6.09c.1-2,.25-4,.26-6.09l.21-12.19.11-6.1c0-2-.07-4.06-.1-6.09a585.05,585.05,0,0,0-9.18-97,586.26,586.26,0,0,1,14.93,96.92c.15,2.05.33,4.1.46,6.16l.25,6.16.5,12.35c.12,2.06.08,4.12.1,6.18l0,6.19,0,6.2c0,2.06.07,4.13,0,6.19-.41,16.52-1.15,33.1-2.93,49.61-.43,4.13-.81,8.27-1.29,12.4l-1.71,12.36c-1,8.28-2.63,16.44-4,24.68-.66,4.13-1.61,8.18-2.46,12.28L171-80.83l-3,12.18c-1,4.05-1.94,8.16-3.17,12.16l-3.5,12.1c-.6,2-1.12,4-1.79,6l-2,6-4,12c-1.35,4-2.81,8-4.37,12a156,156,0,0,1-11.45,23.84,91.66,91.66,0,0,1-17.81,21.75Z"/><path class="cls-4" d="M64.29,36.8a187.91,187.91,0,0,1-26.11-53A268.49,268.49,0,0,1,27.72-73.25a426.7,426.7,0,0,1-.22-57.09c.23-4.72.65-9.41,1-14.13l1.29-14c.42-4.68,1-9.34,1.53-14s1.13-9.32,1.76-14A822,822,0,0,1,93.12-403,815.25,815.25,0,0,0,44.45-185c-.38,4.63-.78,9.24-1,13.87s-.61,9.24-.78,13.87l-.56,13.87c-.07,4.62-.24,9.23-.23,13.85a410.81,410.81,0,0,0,3.06,54.91A249.93,249.93,0,0,0,57.39-22.16,165.62,165.62,0,0,0,82.9,23.29Z"/><path class="cls-4" d="M254.66,28.25c63.11-96.82,94.54-214.13,88.28-329.53,13.91,115-9.62,236.88-69,342.08Z"/><path class="cls-4" d="M1860.5-15.27c.08-.07-.28.11.09-.08a9.37,9.37,0,0,0,1.82-1.52,42.7,42.7,0,0,0,2.8-3.23l3.42-4.26,13.68-17.06,6.83-8.52c2.29-2.85,4.54-5.64,6.66-8.39a100,100,0,0,0,10.67-16.37c.66-1.36,1.29-2.73,1.81-4.1.28-.68.5-1.39.72-2.1l.69-2.11c.43-1.43.72-2.94,1.1-4.4s.53-3.06.77-4.61a134.61,134.61,0,0,0,.78-20.07c-.14-7-.5-14.43-.46-22.16a119.18,119.18,0,0,1,2.3-24.08,111.59,111.59,0,0,0,.58,24.1c.91,7.62,2.23,14.88,3.33,22a144.22,144.22,0,0,1,2,21.33,64.15,64.15,0,0,1-3.33,21.25,110.83,110.83,0,0,1-9.6,20.06c-3.77,6.42-7.62,12.63-11.42,18.94l-11.44,18.85-2.86,4.71a51.53,51.53,0,0,1-3.72,5.35,28.2,28.2,0,0,1-6,5.67,21.91,21.91,0,0,1-4.58,2.4,22.23,22.23,0,0,1-5.32,1.3Z"/><path class="cls-4" d="M1771.24,10.68a220.39,220.39,0,0,1,4.88-25.88c2.09-8.48,4.76-16.72,7.61-24.82s6-16,9.35-23.8,6.75-15.45,10.22-23l10.3-22.58c3.29-7.52,6.68-15,9.83-22.58,6.44-15.11,12.49-30.4,18.33-45.79,23.33-61.57,42.52-124.87,61.74-188.36-15.55,64.6-31.06,129-51,192.44-5,15.85-10.21,31.65-15.85,47.32-2.74,7.86-5.73,15.64-8.64,23.46l-9,23.25q-4.53,11.6-8.71,23.17c-2.77,7.72-5.35,15.46-7.58,23.23s-4.25,15.55-5.67,23.35a195.16,195.16,0,0,0-3,23.34Z"/><path class="cls-4" d="M1148.59,15.13c26.13-25,46.84-55.5,62.12-88.59s25.38-68.77,30.81-105.08,6.46-73.53,4.63-110.6-6.48-74.16-12.39-111.14c7.8,36.68,14.37,73.57,18.13,110.86s4.68,75,1,112.58-12.19,75-26.53,110.62a331.44,331.44,0,0,1-26.13,51.6,291.75,291.75,0,0,1-35.76,46.38Z"/><path class="cls-4" d="M905.28,58.47C888.7,46.84,872,35.05,855.85,22.35s-32-26.27-46.41-41.46a250.26,250.26,0,0,1-38-50.71,197.39,197.39,0,0,1-21.53-60.37,241,241,0,0,1-2.48-63.47,309,309,0,0,1,12.35-61.66,463.62,463.62,0,0,1,22.45-57.94c8.65-18.69,18.16-36.83,27.94-54.68-8.94,18.31-17.59,36.88-25.33,55.88a458.79,458.79,0,0,0-19.56,58.42A302,302,0,0,0,756-192.89a230.58,230.58,0,0,0,5.21,60.65A183.67,183.67,0,0,0,784-76.8,234.28,234.28,0,0,0,821.93-31C836.3-17.3,852-5,868.27,6.51s33.16,22.34,50.21,33.13Z"/><path class="cls-4" d="M509.24,36.83c71-111.39,95.67-251.65,67-380.58,36.19,127.26,20.3,272.06-47.56,392.93Z"/><path class="cls-4" d="M470.05,21.09A163,163,0,0,1,457-25a223.51,223.51,0,0,1-2-23.4c-.28-7.76-.28-15.5,0-23.16s.73-15.27,1.33-22.83,1.27-15.06,2.15-22.56,1.76-15,2.69-22.47l1.59-11.2.81-5.59.89-5.58c9.37-59.53,23.76-117.76,38.05-175.58C491.83-278.62,481.19-219.47,475.72-160l-.52,5.57-.45,5.58-.86,11.14c-.44,7.44-1,14.87-1.22,22.3-.63,14.85-1,29.73-.53,44.43.22,7.34.71,14.64,1.45,21.86a199.76,199.76,0,0,0,3.29,21.33,140.42,140.42,0,0,0,14,39.18Z"/><path class="cls-4" d="M286,49.77a164.22,164.22,0,0,0,26.71-35.33,294.28,294.28,0,0,0,19.1-41.54c1.35-3.63,2.69-7.26,4-10.93s2.48-7.39,3.73-11.08l1.85-5.55c.62-1.84,1.15-3.72,1.73-5.58l3.42-11.19,3.13-11.26c.52-1.88,1.06-3.75,1.56-5.64L352.6-94c.93-3.79,1.93-7.56,2.81-11.36L358-116.77a668.43,668.43,0,0,0,13.61-186,672.82,672.82,0,0,1-2.37,188.47l-1.91,11.77c-.66,3.92-1.44,7.82-2.16,11.74L364-84.94c-.38,2-.82,3.89-1.23,5.84l-2.51,11.7-2.8,11.65c-.49,1.93-.91,3.89-1.44,5.82l-1.55,5.79c-1.05,3.86-2,7.74-3.14,11.59s-2.26,7.7-3.43,11.55a312,312,0,0,1-17.77,45.44A184.73,184.73,0,0,1,302.08,66.2Z"/><path class="cls-4" d="M160.35,40.08A208,208,0,0,1,133-1.56a239.71,239.71,0,0,1-17.31-46.35c-8.33-31.86-10.64-64.94-8-97.47s10.08-64.22,20.13-94.72S150.59-300,164.3-328.65c-12,29.45-22.88,59.53-31,90.35s-13.44,62.35-14.13,93.87,3.54,62.89,13.18,92.15A221,221,0,0,0,151-10.56a185.5,185.5,0,0,0,26.9,35.74Z"/><path class="cls-5" d="M1365.28,21.25a36.07,36.07,0,0,0,10.89-6.46,51.2,51.2,0,0,0,9-10.28,79.92,79.92,0,0,0,7-13,140.43,140.43,0,0,0,5.4-14.56l1.13-3.8,1.06-3.85c.69-2.6,1.33-5.3,2-7.94l1-4,.9-4,1.77-8c2.18-10.77,4.14-21.6,5.73-32.52,6.41-43.7,8.33-88.29,10.19-133.17,2,45,3.91,89.79,1.18,134.85-.67,11.26-1.72,22.51-3,33.78l-1.12,8.43-.58,4.22-.67,4.21c-.46,2.82-.88,5.62-1.38,8.45l-.79,4.25-.9,4.26a154.49,154.49,0,0,1-4.77,17,98.46,98.46,0,0,1-7.47,16.71,70.62,70.62,0,0,1-11.72,15.44,57.94,57.94,0,0,1-17.05,11.67Z"/><path class="cls-5" d="M1490.22,9.51c16-9.86,29.9-23.33,41.37-38.77a217.8,217.8,0,0,0,27.77-51.06c7.12-18.31,12.31-37.53,16.47-57.13s7.31-39.64,10.48-59.85c-1.27,20.5-2.53,40.82-4.86,61s-5.74,40.33-11.37,60.11A230.75,230.75,0,0,1,1545.43-19c-11,18-25.27,34.78-43.14,48.05Z"/><path class="cls-5" d="M1664.17,5a34,34,0,0,0,22.39,3.06,54.46,54.46,0,0,0,22.86-10.41,60.72,60.72,0,0,0,9.43-8.83,61.11,61.11,0,0,0,3.91-5.07c1.16-1.69,2.27-3.7,3.4-5.62a101.76,101.76,0,0,0,9.54-25.84c4.33-18.47,5.06-38.53,6.22-59.09l3.38-61.42,13.51-245.67-2,246.31-.51,61.57c-.09,10.26-.1,20.54-.52,30.92-.24,5.18-.51,10.39-1.06,15.62-.21,2.61-.59,5.22-.9,7.84s-.76,5.25-1.3,7.86a118.92,118.92,0,0,1-10,30.9c-1.29,2.45-2.51,4.9-4,7.36a77.88,77.88,0,0,1-4.94,7,80.47,80.47,0,0,1-12,12.22,85.66,85.66,0,0,1-6.93,5.14,83.54,83.54,0,0,1-7.53,4.38,72.18,72.18,0,0,1-8.09,3.53c-1.39.54-2.83,1-4.25,1.42s-2.9.82-4.39,1.11a58.89,58.89,0,0,1-18.53,1.21,54.47,54.47,0,0,1-9.46-1.76,58,58,0,0,1-9.1-3.47Z"/><path class="cls-5" d="M1799.06-3.83a87,87,0,0,0,21.8-19.4A114.91,114.91,0,0,0,1836.38-49c8.27-18.68,12.63-39.47,14-60.38,1.39-21.19.27-42.89-.86-65s-2.29-44.71-.66-67.73c.29,23.15,3.36,45.45,6.4,67.43s6.12,43.81,6.59,66A211.26,211.26,0,0,1,1860-75.17,173.71,173.71,0,0,1,1852.14-42a132.08,132.08,0,0,1-15.64,31.42,108.14,108.14,0,0,1-25.34,26.29Z"/><path class="cls-5" d="M1002.18,32.71a202,202,0,0,1-86.39-122,202,202,0,0,1,22.39-147.8C915.46-191,912.14-137.9,927-91.94s47.64,84.18,87.64,105.3Z"/><path class="cls-5" d="M646.47,62.13A189.17,189.17,0,0,1,592.3-4.36a189.65,189.65,0,0,1-19.79-83.42,208.71,208.71,0,0,1,4.55-42.67A291,291,0,0,1,588.86-171c9.62-26.27,22-50.92,34.15-75.13-10.48,25.07-21.08,50.59-28.75,77.1a284.13,284.13,0,0,0-8.76,40.36A198.13,198.13,0,0,0,584-87.79c3.87,54.22,34,104,76.44,131.66Z"/><path class="cls-5" d="M410.39,12.19a144.21,144.21,0,0,0,24.39-35.9c6.54-13.26,11.54-27.52,15.8-42.15s7.68-29.74,10.77-44.81L463.5-122c.38-1.89.69-3.8,1-5.7l.94-5.71c1.32-7.6,2.28-15.28,3.37-22.92,3.88-30.69,6.1-61.66,7.14-92.78s1.14-62.37,1-93.7c2,31.32,3.93,62.59,4.72,93.9s.57,62.66-1.48,94.05c-.63,7.83-1.12,15.7-2,23.52l-.6,5.88c-.2,2-.39,3.93-.66,5.88l-1.49,11.74c-2.23,15.64-4.81,31.25-8.3,46.8S459.23-30,452.84-14.83A164.56,164.56,0,0,1,427,28.07Z"/><path class="cls-5" d="M299,40.43A189.88,189.88,0,0,1,276,4.78a216.1,216.1,0,0,1-14.92-39.36,257.43,257.43,0,0,1-8.27-82.8c1.64-27.66,7.2-54.82,15.19-81s18.42-51.32,30-75.71c-9.89,25.21-18.46,51-24.53,77.39s-9.56,53.26-9.21,80a242.24,242.24,0,0,0,13.43,77.57c8.66,24.47,21.8,47,39,65Z"/><path class="cls-5" d="M331.32,11a942.24,942.24,0,0,0,44.52-317.43A951.38,951.38,0,0,1,353.22,18Z"/><path class="cls-5" d="M171.11,36.18c-16.46-66.25-16.56-136.1-1.93-202.51s44-129.76,86.79-183c-79.53,111.4-101.13,256.5-62.54,380Z"/><path class="cls-5" d="M233.25,8.87q68-182.32,152.91-357.76-74.42,180.2-131.37,365.8Z"/><path class="cls-4" d="M1325.73,24.13a219.36,219.36,0,0,1-6.48-36.86,171.07,171.07,0,0,1,.85-37.95,142.09,142.09,0,0,1,10.28-37.1,121.81,121.81,0,0,1,20.89-33,117,117,0,0,0-15.61,35.24,131.79,131.79,0,0,0-4.17,36.39,155.4,155.4,0,0,0,5,34.93A197.51,197.51,0,0,0,1348,18.3Z"/><path class="cls-4" d="M1370.14-.16A89.56,89.56,0,0,0,1379.7-26a131.23,131.23,0,0,0,2.64-28.49c-.2-19.48-3.9-39.38-7.77-59.78,7.61,19.69,15.18,38.86,19.27,59.66a142.45,142.45,0,0,1,2.73,32.19,106.68,106.68,0,0,1-6.44,33.63Z"/><path class="cls-4" d="M1405,9.25a191.28,191.28,0,0,0,14.69-36.38,269.91,269.91,0,0,0,8.17-39.08c3.67-26.63,4.26-54,4.34-81.6,3.74,27.63,7,55.12,7,83.18a279.85,279.85,0,0,1-3,42.36,207.47,207.47,0,0,1-11,42.37Z"/><path class="cls-4" d="M1448.83-11.46a31.37,31.37,0,0,0,6-3.12,34.37,34.37,0,0,0,5.49-4.66,47.69,47.69,0,0,0,4.94-6,71.26,71.26,0,0,0,4.34-7,120.39,120.39,0,0,0,7.12-16q3.24-8.54,5.78-17.32a242,242,0,0,0,9.65-72.12,245,245,0,0,1,1.39,75.35c-.86,6.39-2,12.79-3.36,19.15a131.28,131.28,0,0,1-5.45,19.2,83.81,83.81,0,0,1-4.22,9.52,63,63,0,0,1-5.76,9.23,54.05,54.05,0,0,1-7.82,8.49,52,52,0,0,1-10.15,6.85Z"/><path class="cls-4" d="M1616.24,16.42A73.94,73.94,0,0,1,1598.61-7.1a91.32,91.32,0,0,1-8.14-27.29,117.58,117.58,0,0,1-.28-27.66,173.9,173.9,0,0,1,4.91-26.27,292.72,292.72,0,0,1,17.72-48.87,297.49,297.49,0,0,1,26-45,287.59,287.59,0,0,0-32.58,96.73,159.12,159.12,0,0,0-1.74,24.83,100.6,100.6,0,0,0,3.07,23.85,71.41,71.41,0,0,0,9.16,20.87,51.35,51.35,0,0,0,14.67,15Z"/><path class="cls-4" d="M1728,15.47A90.16,90.16,0,0,0,1749.77-2a118.34,118.34,0,0,0,16.59-23.41c9.34-17.09,15.37-36.36,18.89-56.07,3.55-19.93,5-40.58,6.5-61.6s3.15-42.53,7.34-64.09c-2.31,21.93-2,43.36-1.61,64.5s.89,42.12-.91,63.2-6.29,42.22-15.08,62.35a135.64,135.64,0,0,1-16.94,28.78,110.81,110.81,0,0,1-25.24,23.81Z"/><path class="cls-4" d="M1819.51,2.27c13.53-4.94,25.83-13.51,36.24-24.21a144.57,144.57,0,0,0,25.79-37.18c6.79-13.82,11.87-28.67,16-44s7.42-31.12,10.7-47.14c-1.4,16.4-2.77,32.59-5.15,48.65s-5.77,32-11.25,47.54A157.68,157.68,0,0,1,1868.1-9.9a126.09,126.09,0,0,1-18,18.91,110,110,0,0,1-22.63,14.85Z"/><path class="cls-4" d="M1285.3,4.05A89.68,89.68,0,0,1,1270-21.14a97.53,97.53,0,0,1-6.73-28.39,97.57,97.57,0,0,1,1.93-29.1A89.41,89.41,0,0,1,1276.12-106a84.66,84.66,0,0,0-5.34,28.63,87.22,87.22,0,0,0,3.92,26.91c5.22,16.83,15.49,31,28,39.44Z"/><path class="cls-4" d="M870.54-11.66c10.29-5.16,18.67-14.2,24.77-25.09s10.12-23.49,12.33-36.38c2.24-13.13,3-26.91,3.88-41.1s1.79-28.88,4.64-43.76c-1,15.24.05,29.82,1.1,44.1s2.2,28.37,1.71,42.69-3,28.85-8.63,42.91A87.73,87.73,0,0,1,898.92-8a73.14,73.14,0,0,1-18,16.88Z"/><path class="cls-4" d="M803.87,17.73a326.86,326.86,0,0,1,50.77-169.9C829-97.49,820-37.63,826.87,18.06Z"/><path class="cls-4" d="M740.5,26.82a11.12,11.12,0,0,0,1.77-1.89,14.11,14.11,0,0,0,1.56-2.78,32.17,32.17,0,0,0,2.19-8c.26-1.54.45-3.17.61-4.85s.23-3.54.36-5.3.27-3.55.3-5.34l.11-5.36a258.74,258.74,0,0,0-3.22-43.16c-4.34-28.86-12.49-57.49-20.77-86.41,12,27.88,23.85,55.44,32.14,84.69a270.33,270.33,0,0,1,9.1,45.1l.6,5.82c.2,2,.25,3.9.39,5.86s.26,3.89.31,5.92,0,4.1-.06,6.24a57,57,0,0,1-.66,6.58,42.93,42.93,0,0,1-1.68,7,34.69,34.69,0,0,1-3.28,7.18,33.06,33.06,0,0,1-5.4,6.72Z"/><path class="cls-4" d="M658.17,18.86a345.52,345.52,0,0,0,49.77-167c5.71,58.9-4.11,121.35-30.11,178.92Z"/><path class="cls-4" d="M633.64,14.11a124.09,124.09,0,0,1-20.46-40.43,155,155,0,0,1-6.33-44.07,204,204,0,0,1,4.87-43.45A310.54,310.54,0,0,1,623.88-155a309,309,0,0,0-6.54,42.35,194.27,194.27,0,0,0,1,42.22A138.79,138.79,0,0,0,629.7-31.28,102.08,102.08,0,0,0,651.82,0Z"/><path class="cls-4" d="M475.17,10.21c44.79-41,72.29-100.88,74.25-161.59,5.7,61-14.42,127.48-58.71,178.55Z"/><path class="cls-4" d="M520.11,10.3l-8.73-22.52c-2.9-7.49-5.87-15-8.68-22.82s-5.46-15.74-7.64-24a216.8,216.8,0,0,1-4.93-25.14,204.21,204.21,0,0,1,12.44-100.61,197,197,0,0,0-1,99.13,200.18,200.18,0,0,0,7.42,23c3,7.43,6.35,14.65,10,21.79s7.42,14.24,11.22,21.42L541.55,2Z"/><path class="cls-4" d="M418.83,21.92A188.84,188.84,0,0,1,373.19-58a188.81,188.81,0,0,1-3.08-92C364.18-87.41,392-27.63,435.33,5.9Z"/><path class="cls-4" d="M333.11-2.75,362.8-40.5c9.72-12.47,18.9-24.86,25.73-38S400-106,403.46-121s5.69-30.56,7.94-46.4c-.35,16.11-.69,32-2.34,47.69s-4.64,31.37-10.34,46.5S384.78-43.76,376.4-29.89L351.18,11.47Z"/><path class="cls-4" d="M315.75,7.64C302.37-5.3,292.11-20.94,284.66-37.43a202,202,0,0,1-15.05-51.51,325.73,325.73,0,0,1-3.54-52.42c.07-17.32,1.06-34.42,2-51.31.94,17,1.86,34.21,3.71,51.34A316,316,0,0,0,281-90.74a186,186,0,0,0,19.41,46.2c8.45,14.07,19.05,26.43,31.37,35.65Z"/><path class="cls-4" d="M266.27,11.05a78.75,78.75,0,0,0-11-6.94c-4.05-2.15-8.42-4.19-13-6.35S233-6.73,228.17-9.48A113.17,113.17,0,0,1,214.27-19,116.49,116.49,0,0,1,192-43.81,141.57,141.57,0,0,1,177.38-73a161.37,161.37,0,0,1-7.76-31.36,212.43,212.43,0,0,1-2-31.67,305,305,0,0,1,2.12-31.12c1.21-10.23,2.81-20.34,4.58-30.32-.83,10.15-1.47,20.39-1.73,30.66a305.18,305.18,0,0,0,.78,30.84,206.2,206.2,0,0,0,4.74,30.39,151.48,151.48,0,0,0,10,28.65A127.63,127.63,0,0,0,204-51.79a99.69,99.69,0,0,0,21.21,19.4,95.68,95.68,0,0,0,12.27,6.71c4.29,1.9,8.79,3.56,13.47,5.25s9.54,3.43,14.5,5.51a96,96,0,0,1,15,7.86Z"/><path class="cls-4" d="M159.14-2.11c33.5-26.51,59.23-62.72,74.68-102.75s20.77-84.12,13.8-126.26c21.56,83.15-5,182.26-74.2,247Z"/><path class="cls-4" d="M93.43,12.37C70.93-18.65,56.6-55.12,51-92.76s-2.58-76.71,9.88-112.95C43.26-130.64,65.38-52.31,112-1.14Z"/><path class="cls-5" d="M27.55,2.72a6.94,6.94,0,0,0,0-1.64,11.1,11.1,0,0,0-.66-2.39,37,37,0,0,0-3.69-6.76c-.82-1.27-1.75-2.62-2.72-4.06-.49-.69-1-1.49-1.47-2.28l-1.47-2.36c-1-1.59-2-3.14-2.89-4.76L12-26.44l-1.3-2.46c-.41-.83-.76-1.69-1.14-2.53L7.35-36.5c-.39-.84-.72-1.7-1-2.57l-1-2.6c-.62-1.73-1.3-3.45-1.86-5.21A147.35,147.35,0,0,1-1.63-68.35c-.28-1.82-.6-3.63-.83-5.45L-3-79.29-3.24-82c-.09-.92-.08-1.84-.12-2.76l-.17-5.51c-.1-1.84,0-3.68.08-5.52s.11-3.67.2-5.51l.53-5.5c.18-1.83.32-3.67.66-5.48a140.76,140.76,0,0,1,13.11-42.21A135.34,135.34,0,0,0,9.72-70.19a133.64,133.64,0,0,0,7.45,18.87c.74,1.5,1.58,3,2.36,4.43l1.18,2.19A22.21,22.21,0,0,0,22-42.55l2.64,4.18c.44.69.86,1.39,1.33,2.07l1.45,2,2.89,3.93c1,1.29,2.09,2.49,3.11,3.73s2,2.43,3.17,3.67,2.31,2.54,3.51,3.95A51.14,51.14,0,0,1,47-9a31.13,31.13,0,0,1,2.57,7,28.62,28.62,0,0,1,.64,8.39Z"/><path class="cls-5" d="M26.71-2.71c12.11-9.94,22.07-22.62,29.83-36.71A182.85,182.85,0,0,0,73.81-85,308.06,308.06,0,0,0,81-134.45c1.25-16.86,1.59-34,1.93-51.27,1.58,17.34,3.15,34.49,3.81,51.69A318.15,318.15,0,0,1,85-82.27,194.82,194.82,0,0,1,71.64-31.09,144.36,144.36,0,0,1,41.32,15.06Z"/><path class="cls-5" d="M183.37,5.07c94.32-50.85,162.51-148.39,177.88-254.43C353.46-142.23,291.61-36,194.29,25.31Z"/><path class="cls-5" d="M231.65,26.53A262.84,262.84,0,0,1,198-42a283.12,283.12,0,0,1-13.39-75,282.83,282.83,0,0,1,7-75.88,262.55,262.55,0,0,1,27.77-71.18,258.87,258.87,0,0,0-22.17,72.48,273.5,273.5,0,0,0-1.13,74.09,267.92,267.92,0,0,0,18.31,70.2,241.69,241.69,0,0,0,36.19,60.81Z"/><path class="cls-5" d="M479.7,25.15c27.48-26.59,54.59-53.16,78-82.31a359.24,359.24,0,0,0,31.63-45.75,246.61,246.61,0,0,0,22.08-50.16,246.4,246.4,0,0,1-17.1,53A363.47,363.47,0,0,1,566.7-50c-21,32.29-46.12,62.23-71,91.64Z"/><path class="cls-5" d="M874.36,7.72c78.82-48.25,137.46-129,159-218.83-14.08,91.65-66.81,180.29-147,238.44Z"/><path class="cls-5" d="M1763.45,24.49a169.83,169.83,0,0,1-57.18-58.72,169.88,169.88,0,0,1-23.55-78.51c10.11,55.2,48.2,99.4,92.74,117.61Z"/><path class="cls-5" d="M1767,9.38c16.79-12.87,31.19-29,43.14-46.82a276.38,276.38,0,0,0,29.13-57.91A448.63,448.63,0,0,0,1857-158.84c4.56-21.7,8-43.78,11.39-66-1.45,22.54-3,44.94-5.77,67.22A454.48,454.48,0,0,1,1850-91.36a289.61,289.61,0,0,1-25.58,63.53C1813.21-7.6,1798.88,11.48,1781,27.62Z"/><path class="cls-5" d="M1870.79,2.36c-8.44-44-3.42-90.54,15-131.6C1874.38-85,1878.28-39.94,1893.38-2Z"/></g></g></svg>
