<svg xmlns="http://www.w3.org/2000/svg" width="160" height="160" viewBox="0 0 160 160"><defs><style>.cls-1{fill:#f15a24;}.cls-2{fill:#fcd821;}</style></defs><title>blomst</title><g id="Layer_1" data-name="Layer 1"><ellipse class="cls-1" cx="90.35" cy="32.88" rx="29.28" ry="9.68" transform="translate(35.28 111.69) rotate(-75.05)"/><path class="cls-1" d="M57.12,156.66c-5.17-1.38-6-15.16-1.8-30.78s11.74-27.18,16.91-25.8,6,15.17,1.8,30.79S62.29,158,57.12,156.66"/><ellipse class="cls-1" cx="44.87" cy="46.29" rx="9.68" ry="29.28" transform="translate(-19.59 45.29) rotate(-45)"/><ellipse class="cls-1" cx="112.89" cy="115.66" rx="9.68" ry="29.28" transform="translate(-48.72 113.7) rotate(-45)"/><ellipse class="cls-1" cx="65.14" cy="31.43" rx="9.68" ry="29.28" transform="matrix(0.97, -0.25, 0.25, 0.97, -5.85, 17.6)"/><path class="cls-1" d="M97.81,155.69c-5.17,1.36-12.7-10.22-16.81-25.85s-3.25-29.42,1.92-30.78,12.7,10.21,16.81,25.85,3.25,29.42-1.92,30.78"/><path class="cls-1" d="M154.69,101.14c-1.38,5.17-15.16,6-30.79,1.81S96.73,91.2,98.11,86s15.17-6,30.79-1.81S156.07,96,154.69,101.14"/><ellipse class="cls-1" cx="34.06" cy="68.81" rx="9.68" ry="29.28" transform="translate(-41.91 79.94) rotate(-72)"/><path class="cls-1" d="M155.62,60.92c1.36,5.17-10.22,12.7-25.85,16.81S100.35,81,99,75.81,109.2,63.11,124.84,59s29.42-3.25,30.78,1.92"/><ellipse class="cls-1" cx="31.36" cy="94.49" rx="29.28" ry="9.68" transform="translate(-23 11.08) rotate(-14.73)"/><ellipse class="cls-1" cx="113.79" cy="44.94" rx="29.28" ry="9.68" transform="translate(1.55 93.62) rotate(-45)"/><ellipse class="cls-1" cx="42.62" cy="116.56" rx="29.28" ry="9.68" transform="translate(-69.94 64.28) rotate(-45)"/><circle class="cls-2" cx="78.41" cy="80.17" r="25.23"/></g></svg>
