<svg xmlns="http://www.w3.org/2000/svg" width="220" height="340" viewBox="0 0 220 340"><defs><style>.cls-1,.cls-9{fill:none;stroke-miterlimit:10;}.cls-1{stroke:lime;stroke-linecap:round;stroke-width:15px;}.cls-2{fill:lime;}.cls-3,.cls-4{fill:#f15a24;}.cls-4,.cls-5{fill-rule:evenodd;}.cls-5,.cls-6{fill:#f18024;}.cls-7{fill:#fcee21;}.cls-8{fill:#f2f2f2;}.cls-9{stroke:#000;stroke-width:3px;}.cls-10{fill:#006837;}</style></defs><title>glad blomst</title><g id="Layer_1" data-name="Layer 1"><line class="cls-1" x1="114.35" y1="114.77" x2="115.08" y2="319"/><path class="cls-2" d="M207,242l-30.61,51.2a32.78,32.78,0,0,1-6.76,8.49c-18.68,16.72-50.61,5.16-53.77,4-6-16.85-4.09-34,5.88-44.24a31,31,0,0,1,11.82-7.53Z"/><ellipse class="cls-3" cx="112.17" cy="44" rx="15.32" ry="39"/><ellipse class="cls-3" cx="112.17" cy="173.15" rx="15.32" ry="39"/><ellipse class="cls-3" cx="78.98" cy="52.95" rx="15.32" ry="38.98" transform="translate(-16.05 49.8) rotate(-31.94)"/><ellipse class="cls-3" cx="145.35" cy="164.19" rx="15.32" ry="38.98" transform="matrix(0.85, -0.53, 0.53, 0.85, -64.86, 101.75)"/><path class="cls-4" d="M216.83,108.57c0,8.48-17.43,15.35-38.93,15.35S139,117.05,139,108.57,156.4,93.23,177.9,93.23s38.93,6.87,38.93,15.34"/><path class="cls-4" d="M7.5,107.29C7.5,98.82,24.93,92,46.43,92s38.93,6.87,38.93,15.34-17.43,15.35-38.93,15.35S7.5,115.77,7.5,107.29"/><path class="cls-4" d="M200.77,159.4c-4.23,7.34-22.76,4.56-41.38-6.21s-30.28-25.45-26-32.79,22.75-4.56,41.37,6.21S205,152.06,200.77,159.4"/><path class="cls-4" d="M23.57,56.47c4.23-7.34,22.75-4.56,41.37,6.21S95.23,88.13,91,95.47,68.24,100,49.62,89.25s-30.28-25.44-26-32.78"/><path class="cls-4" d="M199.43,54.66c4.48,7.19-6.66,22.27-24.9,33.68S137.88,103.18,133.4,96s6.66-22.26,24.9-33.68S195,47.47,199.43,54.66"/><path class="cls-4" d="M23.63,161.21c-4.49-7.19,6.66-22.27,24.9-33.68s36.64-14.84,41.13-7.66S83,142.14,64.76,153.55s-36.65,14.84-41.13,7.66"/><ellipse class="cls-3" cx="143.44" cy="52.31" rx="38.98" ry="15.32" transform="translate(26.52 150.5) rotate(-60.06)"/><ellipse class="cls-3" cx="80.89" cy="163.56" rx="38.98" ry="15.32" transform="translate(-101.21 152.02) rotate(-60.06)"/><path class="cls-5" d="M25.11,82.12c2.18-6.72,18.35-7.47,36.11-1.69s30.41,15.91,28.23,22.63-18.35,7.47-36.11,1.69S22.93,88.83,25.11,82.12"/><path class="cls-5" d="M198,136.31c-2.18,6.71-18.35,7.47-36.12,1.69s-30.4-15.92-28.22-22.64,18.34-7.47,36.11-1.69,30.4,15.92,28.23,22.64"/><ellipse class="cls-6" cx="72.6" cy="68.29" rx="12.77" ry="33.86" transform="translate(-26.91 62.53) rotate(-39.93)"/><ellipse class="cls-6" cx="153.01" cy="148.85" rx="12.77" ry="33.86" transform="translate(-59.86 132.93) rotate(-39.93)"/><path class="cls-5" d="M202.69,90.66c1.47,6.91-12.16,15.66-30.43,19.55s-34.27,1.45-35.74-5.46S148.68,89.09,167,85.2s34.28-1.45,35.74,5.46"/><path class="cls-5" d="M22.92,129c-1.47-6.9,12.16-15.66,30.43-19.55s34.27-1.44,35.74,5.46-12.16,15.67-30.43,19.56S24.38,136,22.92,129"/><ellipse class="cls-6" cx="153.01" cy="69.57" rx="33.85" ry="12.78" transform="translate(-7.19 120.44) rotate(-42.07)"/><ellipse class="cls-6" cx="72.6" cy="148.85" rx="33.85" ry="12.78" transform="translate(-81.03 86.99) rotate(-42.07)"/><ellipse class="cls-6" cx="127.48" cy="52.95" rx="33.88" ry="12.76" transform="translate(57.34 171.85) rotate(-82.02)"/><ellipse class="cls-6" cx="99.4" cy="164.19" rx="33.88" ry="12.76" transform="translate(-77 239.84) rotate(-82.02)"/><ellipse class="cls-6" cx="99.4" cy="52.95" rx="12.77" ry="33.88" transform="translate(-8.82 21.77) rotate(-11.97)"/><ellipse class="cls-6" cx="127.48" cy="164.19" rx="12.77" ry="33.88" transform="translate(-31.29 30.02) rotate(-11.97)"/><ellipse class="cls-7" cx="112.17" cy="107.29" rx="26.8" ry="26.85"/><circle class="cls-8" cx="94.3" cy="87.42" r="16.78"/><circle class="cls-8" cx="130.04" cy="87.42" r="16.78"/><circle cx="91.38" cy="88.88" r="8.75"/><circle cx="127.12" cy="88.88" r="8.75"/><path class="cls-9" d="M132,105.28c.48,10.15-8,18.81-18.85,19.33S93,117.32,92.56,107.17"/><rect class="cls-10" x="158.85" y="230.74" width="2.19" height="86.07" transform="translate(307.67 -6.78) rotate(58.06)"/></g></svg>