<svg xmlns="http://www.w3.org/2000/svg" width="880" height="70" viewBox="0 0 880 70"><defs><style>.cls-1{fill:#c1272d;}.cls-2{fill:#f7931e;}.cls-3{fill:#ed1c24;}.cls-4{fill:none;stroke:#e6e6e6;stroke-linecap:round;stroke-miterlimit:10;stroke-width:3px;}</style></defs><title>livbar</title><g id="Layer_1" data-name="Layer 1"><path class="cls-1" d="M103.5,11h678a21,21,0,0,1,21,21v0a20,20,0,0,1-20,20h-680a20,20,0,0,1-20-20v0a21,21,0,0,1,21-21Z"/><rect class="cls-2" x="86.5" y="15" width="329" height="33" rx="16.5"/><polygon class="cls-3" points="841.87 64.05 816.25 36.79 841.87 9.54 867.48 36.79 841.87 64.05"/><path class="cls-3" d="M816.7,37.41C810,30,810.4,18,817.63,10.55s18.55-7.4,25.27,0"/><path class="cls-3" d="M839.91,11.55c6.38-7.76,17.68-8.34,25.24-1.3s8.51,19,2.12,26.79"/><polyline class="cls-3" points="47.69 9.29 69.8 34.92 47.18 61.07"/><path class="cls-3" d="M47.53,9.57c5.57-6.47,15-6,21.1,1,7.17,8.27,5.49,19.13.94,24.42"/><polyline class="cls-3" points="47.87 34.66 42.21 27.85 48.45 20.89"/><polyline class="cls-3" points="48.05 22.45 42.21 15.82 48.27 8.67"/><polyline class="cls-3" points="50.37 44.05 44.8 37.15 51.13 30.3"/><polyline class="cls-3" points="47.73 58.21 44.52 54.51 48.59 49.75"/><polyline class="cls-3" points="50.37 56.27 44.8 49.37 51.13 42.51"/><polyline class="cls-3" points="51.23 50.63 44.76 42.67 51.19 35.65"/><polyline class="cls-3" points="34.58 10.58 16.9 40 43.34 61.48"/><path class="cls-3" d="M34.78,10.82C28.26,5.51,19,7.74,14.16,15.8c-5.74,9.49-2.36,19.87,3,24.22"/><polyline class="cls-3" points="37.08 28.23 41.76 20.6 34.66 14.7"/><polyline class="cls-3" points="38.12 40.48 42.89 31.82 34.32 25.3"/><polyline class="cls-3" points="41.02 58.01 44.69 52.01 38.69 47.05"/><polyline class="cls-3" points="38.99 54.57 43.37 46.73 36.04 41.17"/><polyline class="cls-3" points="37.94 48.09 42.32 40.25 34.99 34.69"/><path class="cls-4" d="M854,11c6.35,0,11.5,6.27,11.5,14"/><path class="cls-4" d="M57,9c6.35,0,11.5,6.27,11.5,14"/></g></svg>
