<svg xmlns="http://www.w3.org/2000/svg" width="450" height="90" viewBox="0 0 450 90"><title>play again</title><g id="Layer_1" data-name="Layer 1"><path d="M44.75,42.47A33.58,33.58,0,0,1,36,47.7c-1.34.61-2.71,1.17-4.09,1.69s-2.3.85-2.73,1q.32,7.92.32,13.52a8.62,8.62,0,0,0,.42,3,6.13,6.13,0,0,1,.43,1.47,1.44,1.44,0,0,1-.72,1.2,2.65,2.65,0,0,1-1.49.49c-.65,0-1.07-.46-1.24-1.37,0-.09-.05-.48-.16-1.17a19.91,19.91,0,0,1-.16-2.92q0-5.07-.39-16.64c-.13-3.9-.2-6.68-.2-8.32,0-1.39,0-2.68.07-3.87s.06-2,.06-2.44a69.33,69.33,0,0,0-7.08,2.28c-.65.3-1.56.8-2.73,1.49-.52.31-1,.59-1.53.85a2.8,2.8,0,0,1-1.14.39,1.15,1.15,0,0,1-.91-.46,1.63,1.63,0,0,1-.39-1.1c0-.57.82-1.27,2.47-2.12a43.36,43.36,0,0,1,6-2.43,53.94,53.94,0,0,1,6.54-1.76,43.29,43.29,0,0,1,7.8-.65,23,23,0,0,1,9.29,1.53q3.38,1.53,3.38,4.58A8.52,8.52,0,0,1,44.75,42.47Zm-2.66-9.2a22.73,22.73,0,0,0-6.89-.91,49.16,49.16,0,0,0-6.11.39c-.05.35-.1,1.15-.17,2.41s-.09,2.45-.09,3.57l.06,4.75c0,1,.07,2.36.07,4a26.76,26.76,0,0,0,5.78-1.95A32.85,32.85,0,0,0,42,41.3c1.95-1.54,2.92-3.17,2.92-4.91Q44.88,34.19,42.09,33.27Z"/><path d="M84.17,63.89a3.46,3.46,0,0,1-1.78.58l-11.18.85L63.47,66l-4,.32a1.14,1.14,0,0,1-.94-.65,2.27,2.27,0,0,1-.42-1.23.81.81,0,0,1,.29-.69A1.72,1.72,0,0,1,59,63.4a3.64,3.64,0,0,0,.48-.16q.07-3.51.07-16.38a110.46,110.46,0,0,0-.75-14.73c-.5-3.48-.74-5.36-.74-5.62a1.7,1.7,0,0,1,.68-1.43,2.32,2.32,0,0,1,1.4-.52.83.83,0,0,1,.71.36,2.88,2.88,0,0,1,.39,1.14,43.09,43.09,0,0,1,1,8.12q.36,5.93.36,12.35c0,3.64,0,7-.07,10.14S62.5,61.89,62.5,63c.56,0,1.64-.12,3.25-.23l4.94-.36c2.51-.3,5.35-.76,8.51-1.36a40.1,40.1,0,0,1,4.62-.72.86.86,0,0,1,.91.65,5.55,5.55,0,0,1,.19,1.56A1.6,1.6,0,0,1,84.17,63.89Z"/><path d="M125.06,48a1.81,1.81,0,0,1-.62.78,4.62,4.62,0,0,1-1.88.68q-1.44.28-2,.36c.34,1.64.52,2.45.52,2.4.3,1.09.62,2.58,1,4.49q1.17,6.56,2.4,11.18a14.38,14.38,0,0,1,.33,1.75,1.43,1.43,0,0,1-.52,1.11,1.83,1.83,0,0,1-1.23.45,1.46,1.46,0,0,1-1.17-.68,5.1,5.1,0,0,1-.72-1.2c-.39-1.48-.75-3.12-1.07-4.94s-.71-4-1.14-6.57c-.17-1.12-.45-2.52-.84-4.19s-.65-2.76-.78-3.28q-3.84.51-13.2,2.08l-3.77.65L99,56.93l-1.82,5.2Q94.93,69.22,94,73.05a3.11,3.11,0,0,1-.78,1.53,1.91,1.91,0,0,1-1.43.62,1.89,1.89,0,0,1-1.21-.39,1.35,1.35,0,0,1-.48-1.11,12.92,12.92,0,0,1,.77-3c.53-1.54.83-2.46.92-2.76s.52-1.43,1-3,1.28-3.74,2.17-6.15,1.49-4,1.79-4.77q-3.31.78-4.94,1.23a17.25,17.25,0,0,1-3.06.65,1.19,1.19,0,0,1-1.07-.55,2.15,2.15,0,0,1-.35-1.2,1.32,1.32,0,0,1,.38-1.08A4.68,4.68,0,0,1,89,52.51c1.64-.39,3.39-.78,5.23-1.17s3.11-.65,3.8-.78c.43-1.25.76-2.32,1-3.18.17-.57.4-1.27.68-2.12s.59-1.89.94-3.15l1-3.31q2.46-8.71,2.86-9.95a10,10,0,0,1,.61-1.43.92.92,0,0,1,.82-.52,6.58,6.58,0,0,1,2.33.39,4.2,4.2,0,0,0,.43-.55,1.63,1.63,0,0,1,.65-.59,2.45,2.45,0,0,1,.94-.16q1.17,0,2.7,2.67a48.72,48.72,0,0,1,3,6.3c.56,1.43,1.27,3.57,2.14,6.4s1.43,4.72,1.69,5.63a9.69,9.69,0,0,0,1.66-.36l.87-.29a2.76,2.76,0,0,0,.72-.46,4.19,4.19,0,0,1,.72-.49.78.78,0,0,1,.71,0,1.61,1.61,0,0,1,.85,1.62A2.49,2.49,0,0,1,125.06,48Zm-9.65-5.43q-1.05-3.74-2-6.08a37.07,37.07,0,0,0-2.34-4.94,9.91,9.91,0,0,0-2.41-3.18L108,30.09a31.19,31.19,0,0,0-1.89,4.48q-1.56,4.68-4.94,15.47l7.61-1.3,6.24-1,1.75-.26Q116.44,46.34,115.41,42.6Z"/><path d="M156.81,27.94c-.26.83-.69,2-1.3,3.64-.48,1.13-1.08,2.75-1.82,4.88A104.65,104.65,0,0,0,149.33,55c-.12,1.13-.25,2.34-.38,3.64s-.2,2.41-.2,3.32a2.55,2.55,0,0,0,.49,1.49,2.64,2.64,0,0,1,.48.91,3.07,3.07,0,0,1-.84,1.4A13.71,13.71,0,0,1,147,67.59a3.09,3.09,0,0,1-1.7.85c-.86,0-1.3-.37-1.3-1.11a93.49,93.49,0,0,1,1.63-9.78q1.62-8.36,2.73-12.84a23.13,23.13,0,0,1-2.79,2.73,4.81,4.81,0,0,1-3.06,1c-1.73,0-3.49-1.38-5.26-4.13a79.43,79.43,0,0,1-5.33-9.91l-.66-1.3a27,27,0,0,0-1.81-3.25,6.81,6.81,0,0,1-.91-1.56c0-.22.16-.38.48-.49a3.38,3.38,0,0,1,1.07-.16c1.44,0,2.71,1.36,3.84,4.09a88.83,88.83,0,0,0,4.65,9.65q2.31,4.06,4.78,4.07a4.12,4.12,0,0,0,2.85-1.11,8.88,8.88,0,0,0,2-2.6,42.18,42.18,0,0,0,1.72-3.9c.67-1.69,1.18-3.07,1.53-4.16q2.09-6.24,2.27-7.21a11.68,11.68,0,0,1,.59-1.92.86.86,0,0,1,.84-.55,2.26,2.26,0,0,1,1.37.48,1.43,1.43,0,0,1,.65,1.14A7.74,7.74,0,0,1,156.81,27.94Z"/><path d="M215.73,48a1.81,1.81,0,0,1-.62.78,4.62,4.62,0,0,1-1.88.68q-1.42.28-1.95.36c.35,1.64.52,2.45.52,2.4.3,1.09.63,2.58,1,4.49q1.17,6.56,2.41,11.18a13.38,13.38,0,0,1,.32,1.75,1.43,1.43,0,0,1-.52,1.11,1.79,1.79,0,0,1-1.23.45,1.49,1.49,0,0,1-1.17-.68,5.1,5.1,0,0,1-.72-1.2c-.39-1.48-.74-3.12-1.07-4.94s-.7-4-1.14-6.57c-.17-1.12-.45-2.52-.84-4.19s-.65-2.76-.78-3.28q-3.84.51-13.2,2.08l-3.77.65-1.36,3.83-1.82,5.2q-2.28,7.09-3.25,10.92a3.11,3.11,0,0,1-.78,1.53,1.91,1.91,0,0,1-1.43.62,1.84,1.84,0,0,1-1.2-.39,1.33,1.33,0,0,1-.49-1.11,12.6,12.6,0,0,1,.78-3c.52-1.54.82-2.46.91-2.76s.52-1.43,1-3,1.29-3.74,2.18-6.15,1.48-4,1.78-4.77c-2.21.52-3.85.93-4.94,1.23a17.22,17.22,0,0,1-3,.65,1.17,1.17,0,0,1-1.07-.55,2.16,2.16,0,0,1-.36-1.2,1.29,1.29,0,0,1,.39-1.08,4.46,4.46,0,0,1,1.3-.55q2.48-.59,5.23-1.17c1.84-.39,3.11-.65,3.8-.78.44-1.25.76-2.32,1-3.18.17-.57.4-1.27.68-2.12s.6-1.89.94-3.15l1-3.31q2.47-8.71,2.86-9.95a9.87,9.87,0,0,1,.62-1.43.9.9,0,0,1,.81-.52,6.6,6.6,0,0,1,2.34.39,3.6,3.6,0,0,0,.42-.55,1.7,1.7,0,0,1,.65-.59,2.45,2.45,0,0,1,.94-.16q1.17,0,2.7,2.67a47.43,47.43,0,0,1,3,6.3c.56,1.43,1.28,3.57,2.14,6.4s1.43,4.72,1.69,5.63a9.48,9.48,0,0,0,1.66-.36l.88-.29a2.72,2.72,0,0,0,.71-.46,4.19,4.19,0,0,1,.72-.49.78.78,0,0,1,.71,0,1.59,1.59,0,0,1,.85,1.62A2.49,2.49,0,0,1,215.73,48Zm-9.65-5.43q-1-3.74-2-6.08a37.07,37.07,0,0,0-2.34-4.94,9.77,9.77,0,0,0-2.41-3.18l-.71,1.69a33.65,33.65,0,0,0-1.89,4.48q-1.56,4.68-4.94,15.47l7.61-1.3,6.24-1,1.75-.26C207.23,46.73,206.77,45.09,206.08,42.6Z"/><path d="M261.26,75.65l.33.94A3.83,3.83,0,0,0,262.3,78a1.19,1.19,0,0,1,.39.75.79.79,0,0,1-.48.71,2.33,2.33,0,0,1-1.08.26,3.51,3.51,0,0,1-2.37-.81,3,3,0,0,1-.94-2.37q0-8.19.13-13.39l.13-5.79q.19-6,.19-9-6.49,14.49-12.74,21.87t-14,7.38q-5.72,0-8.39-3.51t-2.66-10.92A45.25,45.25,0,0,1,225,43.64a45.14,45.14,0,0,1,11.54-15.5q7-6,14.27-6a3.23,3.23,0,0,1,3.09,1.43,6,6,0,0,1,.81,3,9.1,9.1,0,0,1-.29,2.56c-.2.63-.43.95-.69.95s-.38-.2-.48-.59a16.82,16.82,0,0,1-.36-2.08,5.2,5.2,0,0,0-.65-2.11,1.81,1.81,0,0,0-1.63-.68q-6,0-12.31,5.85a46.86,46.86,0,0,0-10.53,14.78,40.9,40.9,0,0,0-4.2,17.46c0,3.59.6,6.4,1.79,8.41s3.35,3,6.47,3a13.77,13.77,0,0,0,9.42-4A41.06,41.06,0,0,0,249,60.41q3.42-5.82,8.09-15.44a86.41,86.41,0,0,0-9.29,2.6l-2.54.85-2.4.78c-1.6.56-2.91,1-3.9,1.26a9.2,9.2,0,0,1-2.47.43,1.13,1.13,0,0,1-1-.62,2.6,2.6,0,0,1-.36-1.33q0-.91,2.67-1.86a74.71,74.71,0,0,1,8-2.11q2.09-.45,6-1.56c.44-.13,1.75-.47,3.94-1a21.89,21.89,0,0,1,4.58-.84H261a.9.9,0,0,1,.87.48,3.34,3.34,0,0,1,.26,1.53c0,.39-.26.74-.78,1l-.06,5q-.19,5.07-.2,11v12.8C261.22,74.92,261.26,75.65,261.26,75.65Z"/><path d="M303.29,48a1.89,1.89,0,0,1-.62.78,4.68,4.68,0,0,1-1.89.68q-1.42.28-1.95.36c.35,1.64.52,2.45.52,2.4.31,1.09.63,2.58,1,4.49q1.17,6.56,2.4,11.18a14.38,14.38,0,0,1,.33,1.75,1.46,1.46,0,0,1-.52,1.11,1.84,1.84,0,0,1-1.24.45,1.49,1.49,0,0,1-1.17-.68,5.37,5.37,0,0,1-.71-1.2c-.39-1.48-.75-3.12-1.07-4.94s-.71-4-1.14-6.57c-.18-1.12-.46-2.52-.85-4.19s-.65-2.76-.78-3.28q-3.82.51-13.19,2.08l-3.77.65-1.37,3.83-1.82,5.2q-2.26,7.09-3.25,10.92a3.11,3.11,0,0,1-.78,1.53,2,2,0,0,1-2.63.23,1.36,1.36,0,0,1-.49-1.11,12.6,12.6,0,0,1,.78-3c.52-1.54.83-2.46.91-2.76s.52-1.43,1-3,1.29-3.74,2.18-6.15,1.48-4,1.79-4.77q-3.32.78-4.94,1.23a17.44,17.44,0,0,1-3.06.65,1.19,1.19,0,0,1-1.07-.55,2.16,2.16,0,0,1-.36-1.2,1.29,1.29,0,0,1,.39-1.08,4.59,4.59,0,0,1,1.3-.55c1.65-.39,3.39-.78,5.24-1.17s3.1-.65,3.8-.78c.43-1.25.76-2.32,1-3.18.18-.57.4-1.27.69-2.12s.59-1.89.94-3.15l1-3.31q2.47-8.71,2.86-9.95a11.12,11.12,0,0,1,.62-1.43.92.92,0,0,1,.81-.52,6.6,6.6,0,0,1,2.34.39,4.2,4.2,0,0,0,.43-.55,1.63,1.63,0,0,1,.65-.59,2.41,2.41,0,0,1,.94-.16q1.17,0,2.7,2.67a48.77,48.77,0,0,1,2.95,6.3c.57,1.43,1.28,3.57,2.15,6.4S297.73,46.08,298,47a9.69,9.69,0,0,0,1.66-.36l.87-.29a2.76,2.76,0,0,0,.72-.46,4.58,4.58,0,0,1,.71-.49.8.8,0,0,1,.72,0,1.6,1.6,0,0,1,.84,1.62A2.46,2.46,0,0,1,303.29,48Zm-9.66-5.43q-1-3.74-1.95-6.08a34.74,34.74,0,0,0-2.34-4.94,9.78,9.78,0,0,0-2.4-3.18l-.72,1.69a32.21,32.21,0,0,0-1.88,4.48Q282.78,39.25,279.4,50l7.6-1.3,6.24-1,1.76-.26C294.78,46.73,294.33,45.09,293.63,42.6Z"/><path d="M344.59,27.62a19.15,19.15,0,0,1-3.64,1c-1.78.35-4,.68-6.76,1s-4.94.53-6.63.62Q327.37,33,327,46.34T326.65,66q3.51-.06,9.23-.45c3.21-.18,5-.26,5.4-.26a4.26,4.26,0,0,1,2.11.52,1.72,1.72,0,0,1,.94,1.62,2.17,2.17,0,0,1-.29,1.3,1.56,1.56,0,0,1-1.27.39c-.26,0-1-.06-2.14-.19a11.13,11.13,0,0,0-2.21-.26q-3.06,0-12.22.39a2.28,2.28,0,0,1-.75.68,1.64,1.64,0,0,1-.75.23,1.74,1.74,0,0,1-.78-.2.76.76,0,0,1-.45-.58l-2.93.32a66.21,66.21,0,0,1-7.54.65,5,5,0,0,1-3.25-.91,2.44,2.44,0,0,1-.58-1.88,1.83,1.83,0,0,1,.42-1,1.13,1.13,0,0,1,.88-.58,6.14,6.14,0,0,1,1,.35,4.41,4.41,0,0,0,1.66.36c1.61,0,4-.08,7.09-.26l3-.19.39-9.56c0-1,.08-1.89.13-2.7s.06-1.48.06-2l.65-21.26c-4.5.31-6.65.46-6.43.46-4.42.34-7,.52-7.8.52a3.43,3.43,0,0,1-2.08-.72,2.16,2.16,0,0,1-1-1.82,1.69,1.69,0,0,1,.43-1.23,1.45,1.45,0,0,1,1.13-.46,7.17,7.17,0,0,1,1,.07l1,.13a16.53,16.53,0,0,0,3.12.32c1,0,2.78-.07,5.46-.23l5.4-.29a2.2,2.2,0,0,1,.58-1.4,1.82,1.82,0,0,1,1.37-.55c.26,0,.47.18.65.52a2.64,2.64,0,0,1,.26,1.17,130.31,130.31,0,0,0,13.58-1.69,4.66,4.66,0,0,0,1.72-.71A5.09,5.09,0,0,1,344,24a1.86,1.86,0,0,1,1.23.52,1.68,1.68,0,0,1,.59,1.3A1.8,1.8,0,0,1,344.59,27.62Z"/><path d="M384.37,67.66q-.45,0-6.08-7T369,48.74c-.35-.47-1.45-2.06-3.31-4.74q-4.1-6-5.07-7.22l-.13,5-.07,4.87q0,4.62-.1,10c-.06,3.6-.14,6.46-.22,8.58a2.32,2.32,0,0,1-.69,1.43,1.73,1.73,0,0,1-1.26.65,1.15,1.15,0,0,1-1-.42,3.14,3.14,0,0,1-.29-1.66c0-.52.08-2.12.26-4.81q.58-7.47.58-12.54,0-4,.13-7.64c.09-2.41.13-3.89.13-4.45l.07-1.89v-.19a2.43,2.43,0,0,1,.22-1.14,1,1,0,0,1,1-.42h.32c.48,0,1.42.85,2.83,2.56s3.19,4.05,5.36,7c.48.61.93,1.2,1.37,1.79l1.23,1.66,3.9,5q9.22,11.78,10.08,13.39c-.09-.34-.24-1.15-.46-2.4s-.42-2.91-.62-4.94-.29-4.14-.29-6.31a139.84,139.84,0,0,0-1.1-15.27q-.33-3.12-.33-3.84c0-1.64.93-2.47,2.8-2.47.43,0,.75.45,1,1.33a34.27,34.27,0,0,1,.46,5.63q.12,4.29.13,13.71,0,3,.22,5.85c.16,1.91.3,3.6.43,5.07.21,2,.32,3.58.32,4.62l.07,2.34C386.91,67.4,386.06,67.66,384.37,67.66Z"/><path d="M422.72,36.88a26.09,26.09,0,0,1-4.09,4.39L416.74,43c-.17.17-.83.76-2,1.75a16.67,16.67,0,0,0-2.76,3A5.35,5.35,0,0,0,410.89,51a9.56,9.56,0,0,0,.72,3.38l.35.78a2.13,2.13,0,0,1,.23.85,1.53,1.53,0,0,1-.52,1.23,1.72,1.72,0,0,1-1.17.46c-.78,0-1.41-.57-1.88-1.69a14.31,14.31,0,0,1-1.3-5,7,7,0,0,1,1-3.51,11.63,11.63,0,0,1,2.14-2.66q1.37-1.31,3.45-3.06l2.34-2a22.52,22.52,0,0,0,2.92-3.35,5.65,5.65,0,0,0,1-3.22q0-3-3.77-3.05a18.74,18.74,0,0,0-5.82,1.13,36.64,36.64,0,0,0-6.3,2.83,19.47,19.47,0,0,0-4.26,3.06,16.16,16.16,0,0,1-1.27,1,1.87,1.87,0,0,1-1,.45,2.78,2.78,0,0,1-1.66-.65,1.88,1.88,0,0,1-.88-1.56.9.9,0,0,1,.39-.65,6.79,6.79,0,0,1,.88-.61c.32-.2.64-.41.94-.62a70.7,70.7,0,0,1,9.62-5.33,23.52,23.52,0,0,1,9.82-2.47,8.48,8.48,0,0,1,5.29,1.52,5.06,5.06,0,0,1,2,4.26A7.48,7.48,0,0,1,422.72,36.88Zm-7.67,28.34a7,7,0,0,1-1.62,2,3,3,0,0,1-1.89.81,2.27,2.27,0,0,1-2.6-2.53,3.72,3.72,0,0,1,1.4-2.57,4.11,4.11,0,0,1,2.83-1.33c1.69,0,2.53.6,2.53,1.82A4.1,4.1,0,0,1,415.05,65.22Z"/></g></svg>