<svg xmlns="http://www.w3.org/2000/svg" width="880" height="70" viewBox="0 0 880 70"><defs><style>.cls-1{fill:#c1272d;}.cls-2{fill:#f7931e;}.cls-3,.cls-4{fill:#f15a24;}.cls-3,.cls-5{fill-rule:evenodd;}.cls-5,.cls-6{fill:#f18024;}.cls-7{fill:#fcee21;}.cls-8{fill:#f2f2f2;}.cls-9{fill:none;stroke:#000;stroke-miterlimit:10;}</style></defs><title>point bar</title><g id="Layer_1" data-name="Layer 1"><rect class="cls-1" x="79.5" y="16" width="720" height="40" rx="20"/><rect class="cls-2" x="83.5" y="20" width="604" height="33" rx="16.5"/><path class="cls-3" d="M838.5,3.67c2.59,0,4.68,5.34,4.68,11.92s-2.09,11.93-4.68,11.93-4.68-5.34-4.68-11.93,2.09-11.92,4.68-11.92"/><path class="cls-3" d="M838.5,67c-2.59,0-4.68-5.34-4.68-11.92s2.09-11.93,4.68-11.93,4.68,5.34,4.68,11.93S841.09,67,838.5,67"/><ellipse class="cls-4" cx="828.35" cy="18.33" rx="4.69" ry="11.92" transform="translate(115.7 440.98) rotate(-31.94)"/><path class="cls-3" d="M855,62.45c-2.19,1.37-6.79-2-10.28-7.62s-4.52-11.23-2.33-12.6,6.79,2,10.28,7.62,4.53,11.23,2.33,12.6"/><path class="cls-3" d="M870.5,35.33c0,2.6-5.33,4.7-11.9,4.7s-11.9-2.1-11.9-4.7,5.32-4.69,11.9-4.69,11.9,2.1,11.9,4.69"/><path class="cls-3" d="M806.5,34.94c0-2.59,5.33-4.69,11.9-4.69s11.9,2.1,11.9,4.69-5.32,4.69-11.9,4.69-11.9-2.1-11.9-4.69"/><path class="cls-3" d="M865.59,50.87c-1.29,2.25-7,1.4-12.65-1.89s-9.26-7.79-8-10,7-1.39,12.65,1.9,9.26,7.78,8,10"/><path class="cls-3" d="M811.41,19.4c1.29-2.24,7-1.39,12.65,1.9s9.26,7.78,8,10-7,1.39-12.65-1.9-9.26-7.78-8-10"/><path class="cls-3" d="M865.18,18.85c1.37,2.2-2,6.81-7.61,10.3S846.36,33.69,845,31.49s2-6.81,7.61-10.3,11.21-4.54,12.58-2.34"/><path class="cls-3" d="M811.43,51.43c-1.37-2.2,2-6.81,7.61-10.3s11.21-4.54,12.58-2.34-2,6.81-7.61,10.3-11.21,4.53-12.58,2.34"/><ellipse class="cls-4" cx="848.06" cy="18.13" rx="11.92" ry="4.68" transform="translate(409.08 743.97) rotate(-60.06)"/><path class="cls-3" d="M823,62.47c-2.24-1.29-1.39-7,1.89-12.67s7.77-9.28,10-8,1.39,7-1.9,12.67-7.76,9.28-10,8"/><path class="cls-5" d="M811.88,27.25c.67-2.06,5.61-2.29,11-.52s9.29,4.87,8.62,6.92-5.6,2.28-11,.52-9.29-4.87-8.63-6.92"/><path class="cls-5" d="M864.73,43.81c-.67,2.06-5.61,2.29-11.05.52s-9.29-4.87-8.63-6.92,5.61-2.28,11.05-.52,9.29,4.87,8.63,6.92"/><ellipse class="cls-6" cx="826.4" cy="23.02" rx="3.91" ry="10.35" transform="translate(177.95 535.84) rotate(-39.93)"/><ellipse class="cls-6" cx="850.99" cy="47.65" rx="3.91" ry="10.35" transform="translate(167.88 557.36) rotate(-39.93)"/><path class="cls-5" d="M866.18,29.86c.44,2.11-3.72,4.79-9.31,6s-10.48.44-10.92-1.67,3.71-4.79,9.3-6,10.48-.44,10.93,1.67"/><path class="cls-5" d="M811.21,41.59c-.44-2.11,3.72-4.79,9.31-6s10.48-.45,10.92,1.67-3.71,4.78-9.3,6-10.48.45-10.93-1.67"/><ellipse class="cls-6" cx="850.99" cy="23.41" rx="10.35" ry="3.91" transform="translate(203.56 576.19) rotate(-42.07)"/><ellipse class="cls-6" cx="826.4" cy="47.65" rx="10.35" ry="3.91" transform="translate(180.99 565.96) rotate(-42.07)"/><ellipse class="cls-6" cx="843.18" cy="18.33" rx="10.36" ry="3.9" transform="matrix(0.14, -0.99, 0.99, 0.14, 707.95, 850.8)"/><path class="cls-5" d="M833.16,62.6c-2.14-.3-3.22-5.14-2.43-10.8s3.17-10,5.31-9.72,3.22,5.14,2.42,10.8-3.17,10-5.3,9.72"/><ellipse class="cls-6" cx="834.6" cy="18.33" rx="3.9" ry="10.36" transform="translate(14.35 173.53) rotate(-11.97)"/><path class="cls-5" d="M845.33,62.47c-2.11.45-4.78-3.72-6-9.32s-.45-10.49,1.66-10.94,4.78,3.72,6,9.32.44,10.49-1.67,10.94"/><ellipse class="cls-7" cx="838.5" cy="34.94" rx="8.2" ry="8.21"/><circle class="cls-8" cx="833.04" cy="28.87" r="5.13"/><circle class="cls-8" cx="843.96" cy="28.87" r="5.13"/><circle cx="832.14" cy="29.31" r="2.68"/><circle cx="843.07" cy="29.31" r="2.68"/><path class="cls-9" d="M844.57,34.33a6.06,6.06,0,0,1-12.07.58"/><path class="cls-3" d="M40.5,2.67c2.59,0,4.68,5.34,4.68,11.92S43.09,26.52,40.5,26.52s-4.68-5.34-4.68-11.93S37.91,2.67,40.5,2.67"/><path class="cls-3" d="M40.5,66c-2.59,0-4.68-5.34-4.68-11.92s2.09-11.93,4.68-11.93,4.68,5.34,4.68,11.93S43.09,66,40.5,66"/><ellipse class="cls-4" cx="30.35" cy="17.33" rx="4.69" ry="11.92" transform="translate(-4.57 18.68) rotate(-31.94)"/><path class="cls-3" d="M57,61.45c-2.19,1.37-6.79-2-10.28-7.62s-4.52-11.23-2.33-12.6,6.79,2,10.28,7.62S59.15,60.08,57,61.45"/><path class="cls-3" d="M72.5,34.33c0,2.6-5.33,4.7-11.9,4.7s-11.9-2.1-11.9-4.7S54,29.64,60.6,29.64s11.9,2.1,11.9,4.69"/><path class="cls-3" d="M8.5,33.94c0-2.59,5.33-4.69,11.9-4.69s11.9,2.1,11.9,4.69S27,38.63,20.4,38.63,8.5,36.53,8.5,33.94"/><path class="cls-3" d="M67.59,49.87c-1.29,2.25-7,1.4-12.65-1.89s-9.26-7.79-8-10,7-1.39,12.65,1.9,9.26,7.78,8,10"/><path class="cls-3" d="M13.41,18.4c1.29-2.24,7-1.39,12.65,1.9s9.26,7.78,8,10-7,1.39-12.65-1.9-9.26-7.78-8-10"/><path class="cls-3" d="M67.18,17.85c1.37,2.2-2,6.81-7.61,10.3S48.36,32.69,47,30.49s2-6.81,7.61-10.3,11.21-4.54,12.58-2.34"/><path class="cls-3" d="M13.43,50.43c-1.37-2.2,2-6.81,7.61-10.3s11.21-4.54,12.58-2.34-2,6.81-7.61,10.3S14.8,52.62,13.43,50.43"/><ellipse class="cls-4" cx="50.06" cy="17.13" rx="11.92" ry="4.68" transform="translate(10.23 51.96) rotate(-60.06)"/><path class="cls-3" d="M25,61.47c-2.24-1.29-1.39-7,1.89-12.67s7.77-9.28,10-8,1.39,7-1.9,12.67-7.76,9.28-10,8"/><path class="cls-5" d="M13.88,26.25c.67-2.06,5.61-2.29,11-.52s9.29,4.87,8.62,6.92-5.6,2.28-11,.52-9.29-4.87-8.63-6.92"/><path class="cls-5" d="M66.73,42.81c-.67,2.06-5.61,2.29-11.05.52s-9.29-4.87-8.63-6.92,5.61-2.28,11.05-.52,9.29,4.87,8.63,6.92"/><ellipse class="cls-6" cx="28.4" cy="22.02" rx="3.91" ry="10.35" transform="translate(-7.51 23.37) rotate(-39.93)"/><ellipse class="cls-6" cx="52.99" cy="46.65" rx="3.91" ry="10.35" transform="translate(-17.59 44.89) rotate(-39.93)"/><path class="cls-5" d="M68.18,28.86c.44,2.11-3.72,4.79-9.31,6S48.39,35.28,48,33.17s3.71-4.79,9.3-6,10.48-.44,10.93,1.67"/><path class="cls-5" d="M13.21,40.59c-.44-2.11,3.72-4.79,9.31-6S33,34.17,33.44,36.29s-3.71,4.78-9.3,6-10.48.45-10.93-1.67"/><ellipse class="cls-6" cx="52.99" cy="22.41" rx="10.35" ry="3.91" transform="translate(-1.36 41.28) rotate(-42.07)"/><ellipse class="cls-6" cx="28.4" cy="46.65" rx="10.35" ry="3.91" transform="translate(-23.94 31.05) rotate(-42.07)"/><ellipse class="cls-6" cx="45.18" cy="17.33" rx="10.36" ry="3.9" transform="matrix(0.14, -0.99, 0.99, 0.14, 21.75, 59.67)"/><path class="cls-5" d="M35.16,61.6c-2.14-.3-3.22-5.14-2.43-10.8s3.17-10,5.31-9.72,3.22,5.14,2.42,10.8-3.17,10-5.3,9.72"/><ellipse class="cls-6" cx="36.6" cy="17.33" rx="3.9" ry="10.36" transform="translate(-2.8 7.97) rotate(-11.97)"/><path class="cls-5" d="M47.33,61.47c-2.11.45-4.78-3.72-6-9.32S40.92,41.66,43,41.21s4.78,3.72,6,9.32S49.44,61,47.33,61.47"/><ellipse class="cls-7" cx="40.5" cy="33.94" rx="8.2" ry="8.21"/><circle class="cls-8" cx="35.04" cy="27.87" r="5.13"/><circle class="cls-8" cx="45.96" cy="27.87" r="5.13"/><circle cx="34.14" cy="28.31" r="2.68"/><circle cx="45.07" cy="28.31" r="2.68"/><path class="cls-9" d="M46.57,39.25a5.84,5.84,0,0,0-5.76-5.91,5.84,5.84,0,0,0-6.31,5.33"/></g></svg>