<svg xmlns="http://www.w3.org/2000/svg" width="270" height="70" viewBox="0 0 270 70"><title>retry</title><g id="Layer_1" data-name="Layer 1"><path d="M57.74,53.91c-.43.73-.89,1.1-1.36,1.1a3.22,3.22,0,0,1-1.24-.23,16,16,0,0,1-1.75-.87,59.12,59.12,0,0,0-10.73-4.68c-1.95-.65-4.26-1.34-6.92-2S31,45.93,29.47,45.59L29.92,54a10.88,10.88,0,0,0,.46,3,7,7,0,0,1,.39,1.53,1.44,1.44,0,0,1-.72,1.2,2.65,2.65,0,0,1-1.49.49c-.65,0-1.07-.46-1.24-1.37,0-.09-.05-.48-.16-1.17A19.91,19.91,0,0,1,27,54.69c0-.83-.09-2.58-.26-5.27,0-.91-.09-1.79-.13-2.63s-.07-1.59-.07-2.24l-.49-.46a2,2,0,0,1-.48-.71,10.66,10.66,0,0,1-.33-1.24,5.17,5.17,0,0,1-.13-1,1,1,0,0,1,.26-.72,4.13,4.13,0,0,1,.78-.58q-.39-16.26-.39-18.59c0-1.39,0-2.67.07-3.84s.06-2,.06-2.34c-.26.05-1,.15-2.34.33s-2.34.34-3.12.52a46.08,46.08,0,0,0-6.34,1.85,39.23,39.23,0,0,0-4.19,2,6.45,6.45,0,0,1-1.14.62,2.79,2.79,0,0,1-1.07.23,1.16,1.16,0,0,1-.91-.49,1.88,1.88,0,0,1-.39-1.2q0-1.25,4.16-2.86a58.12,58.12,0,0,1,9-2.67,67,67,0,0,1,7-1Q30.77,12,34.41,12A36,36,0,0,1,45,13.35a14.6,14.6,0,0,1,6.63,3.83,8.16,8.16,0,0,1,2.25,5.66,10.89,10.89,0,0,1-2.34,7,20.6,20.6,0,0,1-6.21,5.07,104.81,104.81,0,0,1-10.5,4.87c-1.13.52-2.24,1-3.35,1.43s-1.85.74-2.24.91a1.78,1.78,0,0,0,.07.59q7,1.56,13.84,3.57l1.37.39Q51.63,48.83,55,50c2.25.8,3.38,1.46,3.38,2A4,4,0,0,1,57.74,53.91Zm-9-35a13.88,13.88,0,0,0-5.69-3,32.67,32.67,0,0,0-9.19-1.13c-2.69,0-4.38,0-5.07.13-.05.3-.1,1-.17,2.14s-.09,2.26-.09,3.38l.26,10.4.26,8.06a14.64,14.64,0,0,0,2.3-.62,26.66,26.66,0,0,0,2.9-1.07q8.25-3.31,12.31-6.66t4.07-7.7A5.46,5.46,0,0,0,48.77,18.87Z"/><path d="M93.69,16.73a29.4,29.4,0,0,1-5.5,2.08q-3.73,1.1-6.14,1.56c-2.51.47-5,.85-7.57,1.13s-4.17.45-4.91.49c0,2.52.11,5.1.2,7.77s.15,4.5.19,5.49c1.69-.21,4.23-.63,7.61-1.23L80,33.63a13.09,13.09,0,0,0,6.3-2.6A3.51,3.51,0,0,1,88,30.12a.87.87,0,0,1,.75.48,2,2,0,0,1,.29,1c0,.78-.88,1.64-2.63,2.57a21.91,21.91,0,0,1-5.82,2q-2.67.59-6,1.1c-2.21.35-3.66.57-4.35.65q.39,11.12,2.27,16.51a21,21,0,0,0,3.71.94,29.68,29.68,0,0,0,4.68.3A19.67,19.67,0,0,0,86.41,55a14.52,14.52,0,0,0,4.19-1.85c1.06-.74,1.59-1.43,1.59-2.08A2.67,2.67,0,0,0,92,50a6.94,6.94,0,0,0-.52-1l-.43-.62a1.33,1.33,0,0,1-.29-.68c0-.43.48-.65,1.43-.65A2.31,2.31,0,0,1,94,48a2.87,2.87,0,0,1,.75,1.92A6.06,6.06,0,0,1,92.87,54a13.22,13.22,0,0,1-5.07,3.28,19.1,19.1,0,0,1-7.11,1.27,41,41,0,0,1-6.5-.42,7.2,7.2,0,0,1-3.84-1.66c-1-1.17-1.77-3.2-2.18-6.11S67.4,43.55,67.1,38.7a26.91,26.91,0,0,1-2.76.55,17.54,17.54,0,0,1-2.31.23A1.75,1.75,0,0,1,60.76,39a1.82,1.82,0,0,1-.32-2,.66.66,0,0,1,.49-.39c1.43-.18,2.47-.28,3.12-.33L66.84,36q-.25-8.38-.52-13.65-1,0-1.56.06l-3,.07a1.22,1.22,0,0,1-.91-.33,1,1,0,0,1-.32-.71c0-1,.69-1.74,2.08-2.08q.78-.13,2-.3c.8-.1,1.33-.16,1.59-.16a3.62,3.62,0,0,1,2.73-1.36q.26,0,.42.42a2,2,0,0,1,.17.62q4.29-.19,10.2-1,3.9-.51,12-2.47l2.4-.52c.43,0,.65.26.65.78S94.42,16.34,93.69,16.73Z"/><path d="M140.36,18.19a1.46,1.46,0,0,1-1.17.55,7.91,7.91,0,0,1-1.34-.36,7.32,7.32,0,0,0-2.11-.35q-3.12,0-7.08.32a49.33,49.33,0,0,0-6.57.91c.13,2.08.25,5.37.36,9.85s.16,9.2.16,14.14q0,3.12-.1,7a36.3,36.3,0,0,1-.29,4.75,1.76,1.76,0,0,1-.88,1.17,2.93,2.93,0,0,1-1.52.45,1,1,0,0,1-.78-.39,1.36,1.36,0,0,1-.33-.91l.07-2.27q.39-5.07.39-12.48,0-5.34-.13-12.19t-.26-8.48q-13,1.42-17.36,2.66a5.32,5.32,0,0,1-1.75.26,3.72,3.72,0,0,1-2.28-.84,2.34,2.34,0,0,1-1.1-1.82,1.14,1.14,0,0,1,.38-.95,1.65,1.65,0,0,1,1-.29q3.7-.2,6.24-.39c3.86-.34,8.71-.89,14.56-1.62a26.81,26.81,0,0,1,.1-2.86c.06-.57.2-.85.42-.85a3.06,3.06,0,0,1,2.21,1,2,2,0,0,1,.32,1,8.15,8.15,0,0,1,.13,1.08,42.12,42.12,0,0,0,4.69-.65,74.34,74.34,0,0,1,9.62-1.11c2.08,0,3.46.26,4.15.78a2.19,2.19,0,0,1,.72,1.89A1.73,1.73,0,0,1,140.36,18.19Z"/><path d="M182.67,53.91c-.43.73-.89,1.1-1.37,1.1a3.2,3.2,0,0,1-1.23-.23,15.91,15.91,0,0,1-1.76-.87,59,59,0,0,0-10.72-4.68c-2-.65-4.26-1.34-6.92-2s-4.76-1.25-6.28-1.59l.46,8.38a10.92,10.92,0,0,0,.45,3,7,7,0,0,1,.39,1.53,1.42,1.42,0,0,1-.71,1.2,2.68,2.68,0,0,1-1.5.49c-.65,0-1.06-.46-1.23-1.37,0-.09-.06-.48-.16-1.17a19.66,19.66,0,0,1-.17-2.92c0-.83-.08-2.58-.26-5.27,0-.91-.08-1.79-.13-2.63s-.06-1.59-.06-2.24l-.49-.46a2,2,0,0,1-.49-.71,10.68,10.68,0,0,1-.32-1.24,5.17,5.17,0,0,1-.13-1,1,1,0,0,1,.26-.72,4.13,4.13,0,0,1,.78-.58q-.39-16.26-.39-18.59,0-2.09.06-3.84c.05-1.17.07-2,.07-2.34-.26.05-1,.15-2.34.33s-2.34.34-3.12.52A45.65,45.65,0,0,0,139,17.8a39.23,39.23,0,0,0-4.19,2,6.45,6.45,0,0,1-1.14.62,2.83,2.83,0,0,1-1.07.23,1.16,1.16,0,0,1-.91-.49,1.88,1.88,0,0,1-.39-1.2q0-1.25,4.16-2.86a58,58,0,0,1,9-2.67,67.28,67.28,0,0,1,7-1q4.23-.42,7.86-.42A36.07,36.07,0,0,1,170,13.35a14.6,14.6,0,0,1,6.63,3.83,8.15,8.15,0,0,1,2.24,5.66,10.89,10.89,0,0,1-2.34,7,20.68,20.68,0,0,1-6.2,5.07,104.81,104.81,0,0,1-10.5,4.87c-1.13.52-2.24,1-3.35,1.43s-1.85.74-2.24.91a2.17,2.17,0,0,0,.06.59q7,1.56,13.85,3.57l1.36.39q7.09,2.14,10.47,3.35c2.25.8,3.38,1.46,3.38,2A4,4,0,0,1,182.67,53.91Zm-9-35a13.88,13.88,0,0,0-5.69-3,32.7,32.7,0,0,0-9.2-1.13c-2.68,0-4.37,0-5.07.13,0,.3-.09,1-.16,2.14s-.1,2.26-.1,3.38l.26,10.4.26,8.06a14.66,14.66,0,0,0,2.31-.62,26.41,26.41,0,0,0,2.89-1.07q8.27-3.31,12.32-6.66t4.06-7.7A5.45,5.45,0,0,0,173.7,18.87Z"/><path d="M211.92,17.44c-.26.83-.69,2-1.3,3.64-.48,1.13-1.08,2.75-1.82,4.88a104.65,104.65,0,0,0-4.36,18.52c-.13,1.13-.26,2.34-.39,3.64s-.19,2.41-.19,3.32a2.55,2.55,0,0,0,.49,1.49,2.64,2.64,0,0,1,.48.91,3.07,3.07,0,0,1-.84,1.4,13.24,13.24,0,0,1-1.89,1.85,3,3,0,0,1-1.69.85c-.86,0-1.3-.37-1.3-1.11a93.49,93.49,0,0,1,1.63-9.78q1.62-8.36,2.73-12.84a22.41,22.41,0,0,1-2.8,2.73,4.77,4.77,0,0,1-3,1q-2.6,0-5.27-4.13A82.14,82.14,0,0,1,187,23.88l-.65-1.3a25.67,25.67,0,0,0-1.82-3.25,7.29,7.29,0,0,1-.91-1.56c0-.22.17-.38.49-.49a3.34,3.34,0,0,1,1.07-.16q2.15,0,3.84,4.09a88.83,88.83,0,0,0,4.65,9.65c1.53,2.71,3.13,4.07,4.77,4.07a4.13,4.13,0,0,0,2.86-1.11,8.88,8.88,0,0,0,2-2.6,42.18,42.18,0,0,0,1.72-3.9c.67-1.69,1.18-3.07,1.53-4.16C208,19,208.73,16.6,208.86,16a11.68,11.68,0,0,1,.59-1.92.86.86,0,0,1,.84-.55,2.26,2.26,0,0,1,1.37.48,1.43,1.43,0,0,1,.65,1.14A7.74,7.74,0,0,1,211.92,17.44Z"/><path d="M243.25,26.38a25.77,25.77,0,0,1-4.1,4.39l-1.88,1.69c-.17.17-.84.76-2,1.75a17.13,17.13,0,0,0-2.77,3,5.4,5.4,0,0,0-1.1,3.25,9.76,9.76,0,0,0,.71,3.38q.13.27.36.78a2.31,2.31,0,0,1,.23.85,1.53,1.53,0,0,1-.52,1.23,1.72,1.72,0,0,1-1.17.46c-.78,0-1.41-.57-1.89-1.69a14.53,14.53,0,0,1-1.3-5,7.15,7.15,0,0,1,1-3.51A11.69,11.69,0,0,1,231,34.28q1.36-1.31,3.44-3.06l2.34-2a22.08,22.08,0,0,0,2.93-3.35,5.65,5.65,0,0,0,1-3.22q0-3-3.77-3.05a18.69,18.69,0,0,0-5.82,1.13,36.64,36.64,0,0,0-6.3,2.83,19.23,19.23,0,0,0-4.26,3.06c-.43.39-.86.73-1.27,1a1.9,1.9,0,0,1-1,.45,2.76,2.76,0,0,1-1.65-.65,1.88,1.88,0,0,1-.88-1.56.9.9,0,0,1,.39-.65,6.79,6.79,0,0,1,.88-.61c.32-.2.64-.41.94-.62a70.7,70.7,0,0,1,9.62-5.33,23.47,23.47,0,0,1,9.81-2.47,8.51,8.51,0,0,1,5.3,1.52,5.08,5.08,0,0,1,2,4.26A7.47,7.47,0,0,1,243.25,26.38Zm-7.67,28.34a7,7,0,0,1-1.63,2,3,3,0,0,1-1.88.81,2.27,2.27,0,0,1-2.6-2.53,3.68,3.68,0,0,1,1.4-2.57,4.11,4.11,0,0,1,2.82-1.33c1.69,0,2.54.6,2.54,1.82A4.1,4.1,0,0,1,235.58,54.72Z"/></g></svg>
