<svg xmlns="http://www.w3.org/2000/svg" width="680" height="680" viewBox="0 0 680 680"><defs><style>.cls-1{fill:#c1272d;}.cls-2{fill:#f15a24;}.cls-3{fill:#fcd821;}.cls-4{fill:none;stroke:#603813;stroke-linecap:round;stroke-miterlimit:10;stroke-width:30px;}.cls-5{fill:#603813;}</style></defs><title>retry knap</title><g id="Layer_1" data-name="Layer 1"><path class="cls-1" d="M337.65,10c25.45,0,42.09,60.82,42.09,135.85S359.1,281.7,333.65,281.7s-46.09-60.82-46.09-135.85S312.19,10,337.65,10"/><path class="cls-1" d="M332,665c-25.46,0-46.09-60.82-46.09-135.85S306.57,393.3,332,393.3s46.09,60.82,46.09,135.85S357.49,665,332,665"/><path class="cls-1" d="M667.62,342.35c0,25.46-60.83,46.09-135.85,46.09s-135.86-20.63-135.86-46.09,60.83-46.09,135.86-46.09,135.85,20.64,135.85,46.09"/><path class="cls-1" d="M11,339.12C11,313.66,71.82,293,146.85,293s135.85,20.64,135.85,46.1-60.82,46.09-135.85,46.09S11,364.57,11,339.12"/><ellipse class="cls-1" cx="230.95" cy="166.07" rx="46.09" ry="135.85" transform="translate(-52.09 137.72) rotate(-30)"/><path class="cls-1" d="M499.42,631.44c-22.05,12.72-70.33-29.63-107.84-94.61s-50.06-128-28-140.7,70.33,29.63,107.84,94.61,50.06,128,28,140.7"/><path class="cls-1" d="M51.84,175.77c12.73-22,75.72-9.5,140.7,28s107.33,85.8,94.61,107.84-75.73,9.51-140.7-28S39.11,197.82,51.84,175.77"/><path class="cls-1" d="M630,515.4c-12.73,22.05-75.72,9.51-140.7-28S382,401.6,394.71,379.55s75.72-9.51,140.69,28S642.74,493.36,630,515.4"/><path class="cls-1" d="M51.84,500.85C39.11,478.8,81.47,430.52,146.45,393s128-50.05,140.69-28-29.62,70.33-94.6,107.85-128,50.05-140.7,28"/><path class="cls-1" d="M630,167.69c12.73,22-29.63,70.32-94.61,107.84s-128,50.05-140.69,28,29.62-70.33,94.6-107.85,128-50.05,140.7-28"/><ellipse class="cls-1" cx="434.73" cy="166.07" rx="135.85" ry="46.09" transform="translate(73.55 459.52) rotate(-60)"/><path class="cls-1" d="M158.17,625c-22-12.73-9.5-75.72,28-140.7S272,376.94,294,389.66s9.51,75.72-28,140.7S180.22,637.69,158.17,625"/><ellipse class="cls-2" cx="377.31" cy="166.88" rx="105.12" ry="34.77" transform="translate(118.76 488.38) rotate(-75.05)"/><path class="cls-2" d="M258,611.31c-18.55-5-21.45-54.44-6.48-110.54s42.16-97.55,60.71-92.6,21.46,54.45,6.48,110.54-42.15,97.55-60.71,92.6"/><ellipse class="cls-2" cx="214.03" cy="215.04" rx="34.77" ry="105.12" transform="translate(-89.37 214.32) rotate(-45)"/><ellipse class="cls-2" cx="458.24" cy="464.1" rx="34.77" ry="105.12" transform="translate(-193.95 459.95) rotate(-45)"/><ellipse class="cls-2" cx="286.8" cy="161.67" rx="34.77" ry="105.12" transform="translate(-31.68 78.24) rotate(-14.73)"/><path class="cls-2" d="M404.1,607.82c-18.57,4.88-45.59-36.68-60.36-92.83s-11.67-105.63,6.9-110.51,45.6,36.68,60.36,92.83,11.67,105.62-6.9,110.51"/><path class="cls-2" d="M608.32,412c-5,18.55-54.44,21.45-110.54,6.48s-97.55-42.16-92.59-60.71,54.44-21.46,110.53-6.48,97.55,42.15,92.6,60.71"/><ellipse class="cls-2" cx="175.21" cy="295.9" rx="34.77" ry="105.12" transform="translate(-160.35 371.1) rotate(-72)"/><path class="cls-2" d="M613.27,267.55c4.89,18.58-36.67,45.6-92.82,60.36S414.82,339.59,409.94,321s36.67-45.59,92.82-60.35S608.39,249,613.27,267.55"/><ellipse class="cls-2" cx="170.36" cy="384.85" rx="105.12" ry="34.77" transform="translate(-92.26 55.97) rotate(-14.73)"/><ellipse class="cls-2" cx="461.47" cy="210.19" rx="105.12" ry="34.77" transform="translate(-13.46 387.87) rotate(-45)"/><ellipse class="cls-2" cx="204.32" cy="464.1" rx="105.12" ry="34.77" transform="translate(-268.32 280.41) rotate(-45)"/><circle class="cls-3" cx="334.46" cy="336.69" r="90.57"/><path class="cls-4" d="M335.32,302.41a44.3,44.3,0,0,1,0,88.59"/><path class="cls-5" d="M285.6,308.93a7.52,7.52,0,0,1,0-13l21.57-12.45L328.73,271a7.51,7.51,0,0,1,11.27,6.5v49.81a7.51,7.51,0,0,1-11.27,6.5l-21.56-12.45Z"/><path class="cls-4" d="M380.2,346.5a44.3,44.3,0,1,1-88.59,0"/></g></svg>