<svg xmlns="http://www.w3.org/2000/svg" width="160" height="160" viewBox="0 0 160 160"><defs><style>.cls-1{fill:#754c24;}.cls-2{fill:none;stroke:#754c24;stroke-miterlimit:10;stroke-width:24px;}</style></defs><title>Settings knap</title><g id="Layer_1" data-name="Layer 1"><circle class="cls-1" cx="80.5" cy="80.5" r="18"/><circle class="cls-2" cx="80" cy="80" r="40"/><path class="cls-1" d="M60,23.81C60,11.52,68.73,1.56,79.5,1.56S99,11.52,99,23.81"/><rect class="cls-1" x="60" y="22" width="39" height="11"/><path class="cls-1" d="M100,135.19c0,12.29-8.73,22.25-19.5,22.25S61,147.48,61,135.19"/><rect class="cls-1" x="61" y="126" width="39" height="12" transform="translate(161 264) rotate(180)"/><path class="cls-1" d="M19.27,67.93C8.71,61.66,4.59,49.07,10.09,39.81S28.6,28.12,39.16,34.38"/><rect class="cls-1" x="14.28" y="47.64" width="39" height="12" transform="translate(-29.56 56.08) rotate(-60)"/><path class="cls-1" d="M39.51,126.45c-10.8,5.86-23.71,3-28.85-6.52S10.1,98,20.89,92.18"/><rect class="cls-1" x="14.43" y="101.14" width="39" height="12" transform="translate(-41.89 190.09) rotate(-120)"/><path class="cls-1" d="M141.39,93c10.58,6.24,14.72,18.82,9.24,28.1s-18.48,11.73-29.06,5.49"/><rect class="cls-1" x="107.06" y="100.98" width="39" height="12" transform="translate(282.48 50.86) rotate(120)"/><path class="cls-1" d="M121.56,33.5c10.67-6.09,23.65-3.44,29,5.92s1,21.87-9.65,28"/><rect class="cls-1" x="107.02" y="47.29" width="39" height="12" transform="translate(109.41 -82.93) rotate(60)"/></g></svg>