<svg xmlns="http://www.w3.org/2000/svg" width="1200" height="720" viewBox="0 0 1200 720"><defs><style>.cls-1{fill:#f2f2f2;opacity:0.7;}</style></defs><title>Settings</title><g id="Layer_1" data-name="Layer 1"><rect class="cls-1" x="7.5" y="11.5" width="1187" height="698" rx="93.07"/><path d="M132.89,303.31a3.3,3.3,0,0,1-2,.66,7.25,7.25,0,0,1-1.48-.11,1.07,1.07,0,0,1-.79-.67c-.46-.78-1-3.09-1.63-6.94S125.77,288,125.2,283q-1.86-22.85-2.88-23.32-.87,1.88-2.65,7.06t-4.14,13.53q-2.58,9-3.9,12.37t-2.34,4.17a9.57,9.57,0,0,1-1.52,1.05,3.26,3.26,0,0,1-1.52.51,1.71,1.71,0,0,1-1-.2,3,3,0,0,1-.55-1.21q-.31-1.17-1.48-7.29t-1.8-11l-.46-3.27q-1.33-10.14-1.8-11.31c-1,.88-1.92,2.85-2.81,5.89s-1.9,7.34-3,12.91q-1.64,6.46-4,21.06a2.18,2.18,0,0,1-1.17,1.56,3.8,3.8,0,0,1-2,.7c-.83,0-1.3-.81-1.4-2.42s-.4-5.1-1-10.45S82.51,283.23,82,279.17a136.5,136.5,0,0,0-3-16.07,23.63,23.63,0,0,1-.55-2.65,2.21,2.21,0,0,1,1.13-1.91,4.44,4.44,0,0,1,2.46-.74c.41,0,.86,1.61,1.32,4.83s1,7.29,1.49,12.17l.23,2.58c.21,1.71.44,3.51.7,5.38,1,7.95,1.54,12.95,1.64,15q1.56-9,3.51-18.17l.7-3.43a57.67,57.67,0,0,1,3.75-12.52q2-4.25,5.22-4.25,1,0,2.26,5.26a92.1,92.1,0,0,1,2,12.29q.55,5,1.41,9.75a43.27,43.27,0,0,0,1.56,6.63q.47-1.34,1.91-5.85t2.69-8.58a226.93,226.93,0,0,1,8.11-23.32,8.66,8.66,0,0,1,1.52-2.38,3.65,3.65,0,0,1,2.62-.74q1,0,2.18,8.89t1.95,20.59q2.11,16.55,3.82,18a2.88,2.88,0,0,1,1.17,2.18C133.78,302.47,133.48,302.87,132.89,303.31Z"/><path d="M172.08,306.86a2.63,2.63,0,0,1-2,.7q-1.56,0-2.85-3.27a24.8,24.8,0,0,1-1.6-6.79q-.3-3.35-.46-13.57c-.06-1.09-.08-2.2-.08-3.32s0-2.06-.08-2.84A117.83,117.83,0,0,1,158.9,290a90.42,90.42,0,0,1-7.84,11.78c-2.63,3.28-4.77,4.91-6.44,4.91a3.34,3.34,0,0,1-3.39-2.73,33.13,33.13,0,0,1-.82-8.65,62.5,62.5,0,0,1,1.45-12.56,43.91,43.91,0,0,1,3.31-10.69,9.34,9.34,0,0,1,1.33-2.22,1.66,1.66,0,0,1,1.24-.59q1.95,0,1.95.78a5.53,5.53,0,0,1-.78,1.8,47.1,47.1,0,0,0-3.66,9.36,55.27,55.27,0,0,0-1.56,14.66q0,6.17,1.71,6.16,2,0,5.5-4.48a81.61,81.61,0,0,0,6.91-10.73A94.09,94.09,0,0,0,163,276a36.75,36.75,0,0,0,1.41-4.83,10.63,10.63,0,0,1,.46-1.91c.16-.39.34-.59.55-.59a3.33,3.33,0,0,1,1.87.7,1.92,1.92,0,0,1,1,1.48q0,3.75.27,12.84t.66,12.59A15,15,0,0,0,170.4,301a14.42,14.42,0,0,0,1.6,2.69,3.54,3.54,0,0,1,.78,1.21A2.63,2.63,0,0,1,172.08,306.86Z"/><path d="M204.49,301.91A19.9,19.9,0,0,1,197.2,307a24.13,24.13,0,0,1-9.44,1.91,10.84,10.84,0,0,1-4.53-.63,1.88,1.88,0,0,1-1.17-1.71q0-.71,1.8-2.46c1.19-1.17,2-1.75,2.42-1.75q.93,0,.93.39a.86.86,0,0,1-.39.62c-.26.21-.39.39-.39.55s.33.41,1,.62a7.81,7.81,0,0,0,2.38.31,19.05,19.05,0,0,0,6.59-1.21,15.83,15.83,0,0,0,5.42-3.16,5.62,5.62,0,0,0,2.1-4.13,4.39,4.39,0,0,0-1.32-3.35,8.13,8.13,0,0,0-3.32-1.84c-1.32-.39-3.55-.94-6.67-1.67q-5.15-1.17-8-2.07a14.06,14.06,0,0,1-4.56-2.26,4.24,4.24,0,0,1-1.72-3.47q0-3.75,3.67-6.87a28.07,28.07,0,0,1,8.42-4.91,22.73,22.73,0,0,1,7.33-1.8c1.77,0,2.65.52,2.65,1.56a4.27,4.27,0,0,1-.62,2.07,2,2,0,0,1-1.87,1.13,1.89,1.89,0,0,1-1-.35,2,2,0,0,0-1.09-.35,22.68,22.68,0,0,0-11,4.06,6,6,0,0,0-2.73,4.91,3,3,0,0,0,2.15,2.77,55.75,55.75,0,0,0,8,2.22,8.07,8.07,0,0,0,1.41.35,10.68,10.68,0,0,1,1.25.28,36.37,36.37,0,0,1,9.2,3.19,5.83,5.83,0,0,1,3.2,5.39A10,10,0,0,1,204.49,301.91Z"/><path d="M219,258.58h-2.58a4.32,4.32,0,0,1-2.69-1.09c-.91-.73-1.36-1.33-1.36-1.8a2.28,2.28,0,0,1,.81-1.64,2.5,2.5,0,0,1,1.68-.78,4.62,4.62,0,0,1,1.95,1.25,17.84,17.84,0,0,1,1.4,1.64,4,4,0,0,1,.79,1.25Zm1.28,49.1a2.38,2.38,0,0,1-1.52.35c-.73,0-1.26-1.22-1.6-3.51s-.69-6.63-1-13q-.32-6.32-.55-12.36c-.15-4-.26-7.14-.31-9.32a2.48,2.48,0,0,1,.27-1.29,1.19,1.19,0,0,1,1.06-.43,2.11,2.11,0,0,1,2.26,1.49,22.42,22.42,0,0,1,.47,5.69l-.08,9.2q0,7.89.47,12.64c0,.16.23,1.82.7,5a34.62,34.62,0,0,1,.55,4.37A1.38,1.38,0,0,1,220.32,307.68Z"/><path d="M252.92,292a47.23,47.23,0,0,1-3.23,4.37,56.65,56.65,0,0,1-7.29,7.57,10.58,10.58,0,0,1-6.75,2.65,5.84,5.84,0,0,1-4.88-2.58,9.68,9.68,0,0,1-1.91-5.92q0-5,2.65-12.64a51.18,51.18,0,0,1,6.71-13.26q4.07-5.61,8.11-5.62a4.06,4.06,0,0,1,3,1.25,7.67,7.67,0,0,1,1.32,1.87,4.56,4.56,0,0,1,.63,2.11,16.21,16.21,0,0,1-.35,3.08c-.24,1.17-.48,1.76-.74,1.76a1,1,0,0,1-1-.86,11.24,11.24,0,0,1-.31-2.19,15.13,15.13,0,0,0-.47-2.69c-.15-.44-.39-.66-.7-.66q-3.67,0-7.1,5.11A47,47,0,0,0,235,287.17q-2.19,6.74-2.19,10.41c0,3.43,1.15,5.15,3.43,5.15a8.69,8.69,0,0,0,4.57-1.25,23.49,23.49,0,0,0,4.33-3.51,78.22,78.22,0,0,0,6.55-7.41c.1-.16.4-.56.9-1.21s.84-1,1.05-1c.62,0,.93.24.93.71A10.29,10.29,0,0,1,252.92,292Z"/><path d="M113.16,516.59a19.14,19.14,0,0,1-7.33,6.16,23.46,23.46,0,0,1-10.73,2.38,31.1,31.1,0,0,1-8-.82c-2-.55-3-1.31-3-2.3a6.12,6.12,0,0,1,1.13-2.61c.75-1.22,1.33-1.84,1.75-1.84.63,0,.94.13.94.39a.87.87,0,0,1-.28.55,1,1,0,0,0-.27.62c0,.16.33.39,1,.71a13.27,13.27,0,0,0,3,.85,26.45,26.45,0,0,0,4.91.39,17.34,17.34,0,0,0,8.08-1.79,14.28,14.28,0,0,0,5.34-4.52,9.39,9.39,0,0,0,1.87-5.31,7.06,7.06,0,0,0-3.24-5.77c-2.15-1.61-5.63-3.15-10.41-4.6q-6.94-2.26-10.72-3.79a19.06,19.06,0,0,1-6.13-3.74,7.19,7.19,0,0,1-2.34-5.42q0-4.29,4.84-8.46a38.29,38.29,0,0,1,11.93-6.79,38.39,38.39,0,0,1,13.18-2.61c2.08,0,3.2.41,3.36,1.25a15.77,15.77,0,0,1,.23,2.8c0,.78-.28,1.17-.85,1.17a1.94,1.94,0,0,1-.9-.27c-.34-.18-.64-.32-.9-.43s-.68-.21-1.09-.31a8.13,8.13,0,0,0-1.8-.16A29.12,29.12,0,0,0,97,474.43a38.81,38.81,0,0,0-9.86,5.23c-2.78,2.08-4.18,4.08-4.18,6a5.29,5.29,0,0,0,1.92,4.06A15.93,15.93,0,0,0,90,492.64q3.2,1.22,9,3,8.58,2.49,12.68,5.61a9.32,9.32,0,0,1,4.09,7.65A13.4,13.4,0,0,1,113.16,516.59Z"/><path d="M147.6,513.43a20.62,20.62,0,0,1-6.4,6.82,16.23,16.23,0,0,1-9.44,2.85c-3.48,0-6.06-1-7.72-2.88a10.63,10.63,0,0,1-2.5-7.18,40.07,40.07,0,0,1,1.37-9.28,38.54,38.54,0,0,1,3.86-9.91c.1-.21.53-1,1.29-2.3a9.69,9.69,0,0,1,2.53-3,4.9,4.9,0,0,1,3-1.05,2.4,2.4,0,0,1,1.28.35,1,1,0,0,1,.59.89,2.26,2.26,0,0,1-.43.75c-.29.38-.51.68-.66.89a36.42,36.42,0,0,0-4.29,6.32,42.63,42.63,0,0,0-3.4,7.88,28.76,28.76,0,0,0-1.21,8.5q0,6.16,7.49,6.16a11.39,11.39,0,0,0,6.52-2,16,16,0,0,0,4.79-4.95,10.4,10.4,0,0,0,1.8-5.34,6.94,6.94,0,0,0-1.8-4.76,30.31,30.31,0,0,0-4.91-4.29,27.22,27.22,0,0,1-3-2.42,2.54,2.54,0,0,1-.93-1.56c0-.62.44-1.13,1.32-1.52a7.72,7.72,0,0,1,3.12-.58,5.12,5.12,0,0,1,1.33.11.43.43,0,0,1,.31.43,1.08,1.08,0,0,1-.27.51,1,1,0,0,0-.27.58q0,.24,1.56,1.56a35.26,35.26,0,0,1,5.22,5.23,9.71,9.71,0,0,1,2.11,6.24A14.72,14.72,0,0,1,147.6,513.43Z"/><path d="M188,523.18a2.63,2.63,0,0,1-1.95.7q-1.56,0-2.85-3.27a24.8,24.8,0,0,1-1.6-6.79q-.3-3.36-.46-13.57c-.06-1.09-.08-2.2-.08-3.32s0-2.06-.08-2.84a117.83,117.83,0,0,1-6.16,12.24A90.42,90.42,0,0,1,167,518.11c-2.63,3.28-4.77,4.91-6.44,4.91a3.34,3.34,0,0,1-3.39-2.73,33.13,33.13,0,0,1-.82-8.65,62.5,62.5,0,0,1,1.45-12.56,43.91,43.91,0,0,1,3.31-10.69,9.34,9.34,0,0,1,1.33-2.22,1.66,1.66,0,0,1,1.24-.59q2,0,2,.78a5.63,5.63,0,0,1-.78,1.8,47.1,47.1,0,0,0-3.66,9.36,55.27,55.27,0,0,0-1.56,14.66q0,6.17,1.71,6.16,2,0,5.5-4.48a82.28,82.28,0,0,0,6.91-10.73A94.09,94.09,0,0,0,179,492.29a36.75,36.75,0,0,0,1.41-4.83,10.8,10.8,0,0,1,.46-1.92c.16-.39.34-.58.55-.58a3.33,3.33,0,0,1,1.87.7,1.91,1.91,0,0,1,1,1.48q0,3.75.27,12.83t.66,12.6a15,15,0,0,0,1.13,4.76,14.42,14.42,0,0,0,1.6,2.69,3.54,3.54,0,0,1,.78,1.21A2.63,2.63,0,0,1,188,523.18Z"/><path d="M221.07,524.7a2.79,2.79,0,0,1-1.87.66,2.38,2.38,0,0,1-1.33-.35,1.1,1.1,0,0,1-.54-1c0-2.13.15-5.44.47-9.91q.47-7.17.46-11.93,0-4.6-.27-7.53c-.18-1.95-.61-2.92-1.29-2.92q-2.64,0-5.81,6.59t-7.21,17.35l-1.17,3.12a2.61,2.61,0,0,1-1,1.25,2.88,2.88,0,0,1-1.53.47,3,3,0,0,1-1.24-.16q-.31-.15-.39-.93l-.63-6.4-1.17-11.23q-.54-6.71-1.32-11.7a9.68,9.68,0,0,1-.24-1.8,2.27,2.27,0,0,1,1-1.91,3.86,3.86,0,0,1,2.34-.74c.52,0,.89,1.25,1.13,3.75s.48,6.52.74,12.09l.31,4.13q.63,7.88.7,10a7.39,7.39,0,0,0,.43-1.05q.19-.59.51-1.29A197,197,0,0,1,210,495.06q3.69-7.29,7.13-7.29,2.42,0,3.32,4.09a62.17,62.17,0,0,1,1.13,10.49q.23,7.11.23,20.75A2,2,0,0,1,221.07,524.7Z"/><path d="M258.9,469.2q0,1.56-.15,6.13t-.16,9.16q0,8.89.39,18.14t.62,12.13a7.45,7.45,0,0,0,.08,1c.05.36.1.7.16,1,.2,1.46.31,2.34.31,2.66,0,.52-.38,1-1.13,1.48a3.76,3.76,0,0,1-1.76.7,1.09,1.09,0,0,1-1.13-.66,5,5,0,0,1-.27-1.84q0-4.29.23-9l.08-4.36c0-1.46,0-3.37-.08-5.74s-.13-4.35-.23-6a98.22,98.22,0,0,1-9,21.17q-5,8.38-10.88,8.39a5.42,5.42,0,0,1-4.49-2.5q-1.83-2.49-1.83-7.17,0-6.17,4.17-13.42a57.37,57.37,0,0,1,9.52-12.48q5.34-5.22,7.92-5.23c1.66,0,2.49.55,2.49,1.64A5.67,5.67,0,0,1,253,487a16.79,16.79,0,0,1-1.64,2.61c-.59.78-1,1.17-1.05,1.17a.7.7,0,0,1-.35-.12.31.31,0,0,1-.19-.27,3.94,3.94,0,0,1,.39-1.33,4.5,4.5,0,0,0,.38-1.24,1.42,1.42,0,0,0-.07-.55c-.06-.1-.21-.16-.47-.16-1.09,0-3.06,1.5-5.89,4.49a50.65,50.65,0,0,0-7.61,10.65,24.24,24.24,0,0,0-3.35,11.46,8,8,0,0,0,.78,3.51,2.66,2.66,0,0,0,2.57,1.64q5.7,0,10.57-9.63a129.51,129.51,0,0,0,8.47-21.88l-.16-6.55c-.15-5.78-.23-8.84-.23-9.21a40.14,40.14,0,0,1,.39-6.71,3.44,3.44,0,0,1,.35-1.09c.13-.21.4-.31.82-.31a2.83,2.83,0,0,1,1.56.51,1.55,1.55,0,0,1,.78,1.36Z"/><path d="M329.49,474.43a35.34,35.34,0,0,1-6.59,2.5q-4.48,1.32-7.37,1.87c-3,.57-6,1-9.09,1.36s-5,.54-5.89.59q.07,4.51.23,9.32c.11,3.2.19,5.39.24,6.59q3-.39,9.12-1.48l3-.47a15.57,15.57,0,0,0,7.56-3.12,4.28,4.28,0,0,1,2-1.09,1,1,0,0,1,.9.58,2.38,2.38,0,0,1,.35,1.21c0,.94-1.05,2-3.16,3.08a25.64,25.64,0,0,1-7,2.46q-3.19.71-7.18,1.33t-5.22.78q.46,13.33,2.73,19.81a27.31,27.31,0,0,0,4.44,1.13,37.2,37.2,0,0,0,5.62.35,23.5,23.5,0,0,0,6.55-.9,17,17,0,0,0,5-2.22c1.28-.88,1.91-1.72,1.91-2.5a3.17,3.17,0,0,0-.23-1.21,7.64,7.64,0,0,0-.62-1.2l-.51-.74a1.67,1.67,0,0,1-.35-.82q0-.78,1.71-.78a2.73,2.73,0,0,1,2.15,1.05,3.47,3.47,0,0,1,.9,2.3,7.24,7.24,0,0,1-2.23,4.91,16,16,0,0,1-6.08,3.94,23,23,0,0,1-8.54,1.52,50.12,50.12,0,0,1-7.8-.5,8.65,8.65,0,0,1-4.6-2q-1.87-2.12-2.62-7.33t-1.28-14a30.81,30.81,0,0,1-3.32.67,20.64,20.64,0,0,1-2.77.27,2,2,0,0,1-1.52-.59,2,2,0,0,1-.58-1.44,2.06,2.06,0,0,1,.19-.93.82.82,0,0,1,.59-.47c1.71-.21,3-.34,3.74-.39l3.35-.39q-.3-10.06-.62-16.38a15.73,15.73,0,0,0-1.87.08l-3.59.07a1.47,1.47,0,0,1-1.09-.39,1.18,1.18,0,0,1-.39-.85c0-1.25.83-2.08,2.5-2.5.62-.1,1.41-.22,2.37-.35a18.64,18.64,0,0,1,1.91-.2,4.37,4.37,0,0,1,3.28-1.63c.21,0,.38.17.51.5a2.38,2.38,0,0,1,.19.74q5.14-.23,12.25-1.17,4.68-.62,14.43-3l2.88-.62q.78,0,.78.93C330.81,473.42,330.37,474,329.49,474.43Z"/><path d="M367.2,475.4c-.28,1-.61,1.53-1,1.53a.87.87,0,0,1-.82-.51,6.31,6.31,0,0,1-.51-1.37,11.48,11.48,0,0,0-2.61-4.48,5.2,5.2,0,0,0-3.79-1.83q-5.46,0-7.83,7.37a56.22,56.22,0,0,0-2.38,17.27,40.29,40.29,0,0,0,5.26-.74c1.95-.39,3.24-.63,3.86-.74a45.55,45.55,0,0,1,7.33-1.17q1.56,0,1.56,1.41a6.78,6.78,0,0,1-.46,2.34c-.32.83-.78,1.24-1.41,1.24a4.13,4.13,0,0,1-1.56-.31,7.69,7.69,0,0,0-3-.47,35.25,35.25,0,0,0-5.15.78l-6.24.94q0,1.95.47,10.84.78,13.72.78,21.92a4.94,4.94,0,0,1-.31,2.07,1.29,1.29,0,0,1-1.25.58,1.76,1.76,0,0,1-1.64-1.25A7,7,0,0,1,346,528q0-9-1.17-28.16l-.15-2.5c-.42.05-1.76.29-4,.7a30.52,30.52,0,0,1-4.95.63,2.54,2.54,0,0,1-1.44-.39,1.32,1.32,0,0,1-.59-1.17c0-1.3.47-2,1.4-2,1.36-.05,3-.17,4.92-.35s3.4-.38,4.44-.59q0-12.78,3.48-20.78t10.33-8a9.1,9.1,0,0,1,4.64,1.25,10.82,10.82,0,0,1,3.43,3,5.79,5.79,0,0,1,1.29,3.28A9.33,9.33,0,0,1,367.2,475.4Z"/><path d="M400,475.4c-.29,1-.61,1.53-1,1.53a.87.87,0,0,1-.82-.51,6.31,6.31,0,0,1-.51-1.37,11.48,11.48,0,0,0-2.61-4.48,5.2,5.2,0,0,0-3.79-1.83q-5.46,0-7.84,7.37a56.54,56.54,0,0,0-2.37,17.27,40.29,40.29,0,0,0,5.26-.74c1.95-.39,3.24-.63,3.86-.74a45.55,45.55,0,0,1,7.33-1.17q1.56,0,1.56,1.41a6.78,6.78,0,0,1-.46,2.34c-.32.83-.78,1.24-1.41,1.24a4.13,4.13,0,0,1-1.56-.31,7.69,7.69,0,0,0-3-.47,35.25,35.25,0,0,0-5.15.78l-6.24.94q0,1.95.47,10.84.78,13.72.78,21.92a4.94,4.94,0,0,1-.31,2.07,1.29,1.29,0,0,1-1.25.58,1.76,1.76,0,0,1-1.64-1.25,7,7,0,0,1-.55-2.8q0-9-1.17-28.16l-.15-2.5c-.42.05-1.76.29-4,.7a30.52,30.52,0,0,1-4.95.63,2.6,2.6,0,0,1-1.45-.39,1.33,1.33,0,0,1-.58-1.17c0-1.3.47-2,1.4-2,1.36-.05,3-.17,4.92-.35s3.4-.38,4.44-.59q0-12.78,3.48-20.78t10.33-8a9.1,9.1,0,0,1,4.64,1.25,10.82,10.82,0,0,1,3.43,3,5.79,5.79,0,0,1,1.29,3.28A9.33,9.33,0,0,1,400,475.4Z"/><path d="M432.14,503.84c0,.93-.69,3-2.07,6.16a27.72,27.72,0,0,1-6.24,8.81,14.13,14.13,0,0,1-10.26,4.06,11.76,11.76,0,0,1-8.34-3.12q-3.36-3.12-3.36-9.6A29.78,29.78,0,0,1,412,488.35a14.5,14.5,0,0,1,9.36-3.78,8.81,8.81,0,0,1,4.88,1.29,4.15,4.15,0,0,1,2,3.7q0,2.73-3.08,5.31a29.44,29.44,0,0,1-8,4.52A48.9,48.9,0,0,1,407,502.2a27.91,27.91,0,0,0-.94,7,10.47,10.47,0,0,0,2.15,7,7.64,7.64,0,0,0,6.12,2.49,12.31,12.31,0,0,0,9.75-4.29,40.28,40.28,0,0,0,6.24-9.67c.11-.21.29-.61.55-1.21s.49-.89.7-.89C432,502.67,432.14,503.06,432.14,503.84Zm-8.7-15.37a6.16,6.16,0,0,0-3-.7,9.67,9.67,0,0,0-5.7,2,18.1,18.1,0,0,0-4.56,4.68,16.43,16.43,0,0,0-2.38,4.83,28,28,0,0,0,7.57-2,33,33,0,0,0,6.67-3.59c1.79-1.3,2.69-2.37,2.69-3.2A2.16,2.16,0,0,0,423.44,488.47Z"/><path d="M460.33,508.28a47.23,47.23,0,0,1-3.23,4.37,56,56,0,0,1-7.3,7.57,10.56,10.56,0,0,1-6.74,2.65,5.83,5.83,0,0,1-4.88-2.58,9.68,9.68,0,0,1-1.91-5.92q0-5,2.65-12.64a50.87,50.87,0,0,1,6.71-13.26q4-5.61,8.11-5.62a4.09,4.09,0,0,1,3,1.25A8.25,8.25,0,0,1,458,486a4.56,4.56,0,0,1,.63,2.11,15.61,15.61,0,0,1-.36,3.08c-.23,1.17-.48,1.76-.74,1.76a1,1,0,0,1-1-.86,10.52,10.52,0,0,1-.31-2.19,15.13,15.13,0,0,0-.47-2.69c-.16-.44-.39-.66-.7-.66q-3.68,0-7.1,5.11a47.45,47.45,0,0,0-5.62,11.85q-2.18,6.75-2.18,10.42,0,5.15,3.43,5.15a8.66,8.66,0,0,0,4.56-1.25,23.17,23.17,0,0,0,4.33-3.51,75.47,75.47,0,0,0,6.55-7.41c.11-.16.41-.56.9-1.21s.85-1,1.06-1c.62,0,.93.24.93.71A10.29,10.29,0,0,1,460.33,508.28Z"/><path d="M500.66,492.29a11.26,11.26,0,0,1-4.1,1.09l-8,1.41-5.07.86q0,4.05.12,8.5t.35,7.8a30.32,30.32,0,0,0,1.09,6.94c.52,1.61.8,2.52.86,2.73a1.82,1.82,0,0,1-1,1.44,3.33,3.33,0,0,1-1.83.67,1.16,1.16,0,0,1-.78-.28,2.23,2.23,0,0,1-.55-.89,19,19,0,0,1-.9-4.06q-.42-3-.66-6.55c-.15-2.13-.27-4.62-.35-7.45s-.12-5.58-.12-8.23q-4.36.71-9,1.72a40.26,40.26,0,0,1-4.91.85,3.11,3.11,0,0,1-1.75-.54,1.7,1.7,0,0,1-.82-1.48,1.3,1.3,0,0,1,.7-1.33,6.25,6.25,0,0,1,2.34-.31,19.71,19.71,0,0,0,3.43-.43c1.51-.29,2.47-.48,2.89-.59,3.48-.67,5.85-1.11,7.09-1.32q0-1.63-.15-4.29c-.11-2.39-.16-4.21-.16-5.46a43.3,43.3,0,0,1,.2-4.72,11,11,0,0,1,.74-3,2.31,2.31,0,0,1,2.34-1.56,1.31,1.31,0,0,1,.93.23,1.19,1.19,0,0,1,.24.86,25.72,25.72,0,0,1-.39,2.73,36.83,36.83,0,0,0-.39,6q0,2.89.15,6.48l.08,2.1q3.51-.54,13.89-2.88a1.79,1.79,0,0,0,1.05-1.09c.28-.63.58-.94.9-.94a2.51,2.51,0,0,1,1.75,1,3,3,0,0,1,.9,2A2.25,2.25,0,0,1,500.66,492.29Z"/><path d="M531.08,518.23a19.86,19.86,0,0,1-7.3,5.07,24.06,24.06,0,0,1-9.44,1.91,10.82,10.82,0,0,1-4.52-.63,1.88,1.88,0,0,1-1.17-1.71q0-.71,1.8-2.46c1.19-1.17,2-1.75,2.41-1.75.63,0,.94.13.94.39a.86.86,0,0,1-.39.62c-.26.21-.39.39-.39.55s.32.41,1,.62a7.85,7.85,0,0,0,2.38.31,19,19,0,0,0,6.59-1.21,15.73,15.73,0,0,0,5.42-3.16,5.61,5.61,0,0,0,2.11-4.13,4.39,4.39,0,0,0-1.32-3.35,8,8,0,0,0-3.32-1.84q-2-.58-6.67-1.67c-3.43-.78-6.1-1.47-8-2.07a14.22,14.22,0,0,1-4.57-2.26,4.26,4.26,0,0,1-1.71-3.47q0-3.75,3.66-6.87a28.12,28.12,0,0,1,8.43-4.91,22.68,22.68,0,0,1,7.33-1.8c1.77,0,2.65.52,2.65,1.56a4.38,4.38,0,0,1-.62,2.07,2,2,0,0,1-1.87,1.13,1.92,1.92,0,0,1-1-.35,2,2,0,0,0-1.09-.35,22.59,22.59,0,0,0-11,4.06,6,6,0,0,0-2.73,4.91,3,3,0,0,0,2.15,2.77,55.75,55.75,0,0,0,8,2.22,8.07,8.07,0,0,0,1.41.35,10.48,10.48,0,0,1,1.24.28,36.47,36.47,0,0,1,9.21,3.19,5.81,5.81,0,0,1,3.19,5.39A10,10,0,0,1,531.08,518.23Z"/><path d="M419.55,115a21.12,21.12,0,0,1-8.08,6.8,26,26,0,0,1-11.82,2.62,34.68,34.68,0,0,1-8.86-.9c-2.18-.61-3.27-1.45-3.27-2.54a6.79,6.79,0,0,1,1.25-2.88c.83-1.35,1.47-2,1.93-2,.69,0,1,.14,1,.43a1,1,0,0,1-.3.6,1.06,1.06,0,0,0-.3.69c0,.17.36.43,1.08.77a14.68,14.68,0,0,0,3.31,1,29.73,29.73,0,0,0,5.42.43,19.14,19.14,0,0,0,8.9-2,15.7,15.7,0,0,0,5.89-5,10.43,10.43,0,0,0,2.06-5.85q0-3.69-3.57-6.36T402.74,95.7q-7.65-2.49-11.82-4.17a20.93,20.93,0,0,1-6.75-4.12,8,8,0,0,1-2.59-6q0-4.73,5.34-9.33a46.93,46.93,0,0,1,27.69-10.37c2.29,0,3.53.46,3.7,1.38a17.09,17.09,0,0,1,.26,3.1c0,.86-.32,1.29-.95,1.29a2.13,2.13,0,0,1-1-.3,10.83,10.83,0,0,0-1-.48c-.34-.11-.74-.23-1.2-.34a8.41,8.41,0,0,0-2-.17,31.85,31.85,0,0,0-10.75,2.32,43,43,0,0,0-10.88,5.76q-4.6,3.43-4.6,6.62a5.81,5.81,0,0,0,2.11,4.47A17.56,17.56,0,0,0,394,88.61q3.52,1.33,10,3.31,9.45,2.76,14,6.19t4.52,8.43A14.78,14.78,0,0,1,419.55,115Z"/><path d="M473.26,68.53A38.09,38.09,0,0,1,466,71.28c-3.29,1-6,1.66-8.12,2.06q-5,1-10,1.51c-3.36.37-5.52.59-6.5.64q.09,5,.26,10.28c.12,3.53.2,6,.26,7.27,2.24-.29,5.59-.83,10.06-1.64l3.27-.51a17.26,17.26,0,0,0,8.34-3.44,4.75,4.75,0,0,1,2.24-1.21,1.15,1.15,0,0,1,1,.65,2.52,2.52,0,0,1,.38,1.33c0,1-1.16,2.17-3.48,3.4a28.42,28.42,0,0,1-7.7,2.71c-2.35.51-5,1-7.91,1.46s-4.84.75-5.76.86q.51,14.7,3,21.84a28.92,28.92,0,0,0,4.9,1.25,40.08,40.08,0,0,0,6.19.39,26,26,0,0,0,7.23-1,19,19,0,0,0,5.54-2.45c1.41-1,2.11-1.89,2.11-2.75a3.44,3.44,0,0,0-.26-1.34,8.83,8.83,0,0,0-.68-1.33l-.56-.82a1.73,1.73,0,0,1-.39-.9c0-.57.63-.86,1.89-.86a3,3,0,0,1,2.37,1.16,3.84,3.84,0,0,1,1,2.54,8.07,8.07,0,0,1-2.45,5.42,17.93,17.93,0,0,1-6.71,4.34,25.47,25.47,0,0,1-9.42,1.68,54.34,54.34,0,0,1-8.6-.56,9.47,9.47,0,0,1-5.07-2.2c-1.38-1.54-2.34-4.24-2.89-8.08s-1-9-1.41-15.39a35.85,35.85,0,0,1-3.66.73,22.68,22.68,0,0,1-3.05.3A2.28,2.28,0,0,1,429.7,98a2.16,2.16,0,0,1-.64-1.59,2.34,2.34,0,0,1,.21-1,.9.9,0,0,1,.65-.52c1.89-.22,3.26-.37,4.12-.43l3.7-.43q-.35-11.08-.69-18.06A18.68,18.68,0,0,0,435,76l-4,.09a1.66,1.66,0,0,1-1.2-.43,1.32,1.32,0,0,1-.43-1c0-1.38.92-2.29,2.75-2.75.69-.12,1.56-.24,2.63-.39a20.22,20.22,0,0,1,2.1-.21,4.79,4.79,0,0,1,3.61-1.81c.23,0,.42.19.56.56a2.43,2.43,0,0,1,.22.82q5.67-.27,13.5-1.29,5.16-.69,15.91-3.27l3.18-.69c.57,0,.86.34.86,1S474.23,68,473.26,68.53Z"/><path d="M535,70.46a1.91,1.91,0,0,1-1.55.73,10.12,10.12,0,0,1-1.76-.47,9.59,9.59,0,0,0-2.8-.47c-2.75,0-5.88.14-9.37.43a66.3,66.3,0,0,0-8.69,1.2q.26,4.13.47,13t.22,18.71q0,4.13-.13,9.2a48.1,48.1,0,0,1-.39,6.28,2.25,2.25,0,0,1-1.16,1.54,3.77,3.77,0,0,1-2,.61,1.31,1.31,0,0,1-1-.52,1.79,1.79,0,0,1-.43-1.2l.09-3Q507,109.8,507,100q0-7.05-.17-16.12t-.34-11.22q-17.2,1.89-23,3.52a7.25,7.25,0,0,1-2.32.35,5,5,0,0,1-3-1.12A3.12,3.12,0,0,1,476.7,73a1.48,1.48,0,0,1,.51-1.25,2.16,2.16,0,0,1,1.29-.38c3.27-.18,6-.35,8.26-.52q7.65-.69,19.27-2.15,0-2.67.12-3.78c.09-.75.28-1.12.56-1.12a4,4,0,0,1,2.93,1.29,2.88,2.88,0,0,1,.43,1.33,12.47,12.47,0,0,1,.17,1.42,53.46,53.46,0,0,0,6.19-.86,99.76,99.76,0,0,1,12.73-1.46c2.75,0,4.59.34,5.5,1a2.89,2.89,0,0,1,1,2.49A2.25,2.25,0,0,1,535,70.46Z"/><path d="M595.64,70.46a1.92,1.92,0,0,1-1.55.73,10.12,10.12,0,0,1-1.76-.47,9.59,9.59,0,0,0-2.8-.47c-2.75,0-5.88.14-9.37.43a66.3,66.3,0,0,0-8.69,1.2q.25,4.13.47,13t.22,18.71q0,4.13-.13,9.2a50.1,50.1,0,0,1-.39,6.28,2.25,2.25,0,0,1-1.16,1.54,3.77,3.77,0,0,1-2,.61,1.31,1.31,0,0,1-1-.52,1.79,1.79,0,0,1-.43-1.2l.08-3q.52-6.72.52-16.52,0-7.05-.17-16.12c-.12-6-.23-9.79-.35-11.22q-17.19,1.89-23,3.52a7.29,7.29,0,0,1-2.32.35,4.94,4.94,0,0,1-3-1.12A3.09,3.09,0,0,1,537.33,73a1.48,1.48,0,0,1,.51-1.25,2.16,2.16,0,0,1,1.29-.38q4.9-.27,8.26-.52,7.65-.69,19.26-2.15c0-1.78.05-3,.13-3.78s.27-1.12.56-1.12a4,4,0,0,1,2.93,1.29,2.88,2.88,0,0,1,.43,1.33,12.47,12.47,0,0,1,.17,1.42,53.46,53.46,0,0,0,6.19-.86,99.57,99.57,0,0,1,12.73-1.46q4.13,0,5.5,1a2.89,2.89,0,0,1,1,2.49A2.25,2.25,0,0,1,595.64,70.46Z"/><path d="M649.21,69a25,25,0,0,1-4.81,1.29q-3.52.69-8.95,1.34t-8.77.81q-.25,3.7-.69,21.33t-.51,26.06q4.63-.09,12.21-.6,6.36-.34,7.14-.35a5.66,5.66,0,0,1,2.79.69,2.3,2.3,0,0,1,1.25,2.15,2.91,2.91,0,0,1-.39,1.72c-.26.35-.81.52-1.68.52-.34,0-1.29-.09-2.83-.26a15.23,15.23,0,0,0-2.93-.34q-4,0-16.16.51a3.14,3.14,0,0,1-1,.91,2.2,2.2,0,0,1-1,.3,2.28,2.28,0,0,1-1-.26,1,1,0,0,1-.61-.78l-3.87.43a85,85,0,0,1-10,.86,6.64,6.64,0,0,1-4.3-1.2,3.23,3.23,0,0,1-.78-2.49,2.39,2.39,0,0,1,.56-1.29,1.51,1.51,0,0,1,1.16-.78,7.34,7.34,0,0,1,1.34.48,5.88,5.88,0,0,0,2.19.47q3.18,0,9.37-.35l4-.25.51-12.65c.06-1.31.12-2.5.18-3.56s.08-2,.08-2.71l.86-28.13q-8.94.61-8.51.61c-5.85.46-9.29.68-10.32.68a4.55,4.55,0,0,1-2.75-.94,2.87,2.87,0,0,1-1.29-2.41,2.26,2.26,0,0,1,.56-1.63,2,2,0,0,1,1.5-.61,10.66,10.66,0,0,1,1.38.09l1.37.17a20.86,20.86,0,0,0,4.13.43q1.89,0,7.22-.3l7.14-.39a2.92,2.92,0,0,1,.78-1.84,2.34,2.34,0,0,1,1.8-.74c.35,0,.63.23.86.69a3.43,3.43,0,0,1,.35,1.55,173.09,173.09,0,0,0,18-2.24,6.42,6.42,0,0,0,2.28-.94,6.46,6.46,0,0,1,1.42-.78,2.41,2.41,0,0,1,1.63.69,2.2,2.2,0,0,1,.78,1.72A2.37,2.37,0,0,1,649.21,69Z"/><path d="M701.84,122q-.6,0-8-9.24T681.55,97q-.69-.94-4.39-6.27-5.42-7.92-6.7-9.55l-.18,6.62-.08,6.45q0,6.11-.13,13.25t-.3,11.35a3.06,3.06,0,0,1-.91,1.89,2.34,2.34,0,0,1-1.67.86,1.52,1.52,0,0,1-1.34-.56,4.31,4.31,0,0,1-.38-2.19q0-1,.34-6.37.78-9.89.77-16.59,0-5.34.18-10.11t.17-5.89l.08-2.49v-.26a3.11,3.11,0,0,1,.31-1.51,1.28,1.28,0,0,1,1.24-.56H669c.63,0,1.88,1.14,3.74,3.4s4.23,5.35,7.1,9.25c.63.8,1.23,1.59,1.8,2.36s1.12,1.51,1.64,2.19q4.9,6.28,5.16,6.63,12.21,15.56,13.33,17.71-.18-.69-.6-3.18t-.82-6.54q-.39-4-.39-8.34a184.3,184.3,0,0,0-1.46-20.21c-.29-2.75-.43-4.44-.43-5.07q0-3.27,3.7-3.27c.57,0,1,.59,1.29,1.76a45.86,45.86,0,0,1,.6,7.44q.17,5.69.17,18.15,0,4,.3,7.74t.56,6.71c.29,2.69.43,4.73.43,6.1l.09,3.1C705.2,121.68,704.08,122,701.84,122Z"/><path d="M771.16,132.6l.43,1.25a5.11,5.11,0,0,0,.95,1.8,1.57,1.57,0,0,1,.51,1,1,1,0,0,1-.64,1,3.1,3.1,0,0,1-1.42.34,4.67,4.67,0,0,1-3.14-1.07,3.94,3.94,0,0,1-1.25-3.14q0-10.84.17-17.72l.18-7.65q.25-8,.25-12-8.6,19.19-16.85,28.94t-18.49,9.76q-7.58,0-11.1-4.64T717.24,116a60,60,0,0,1,5.93-25.76,59.79,59.79,0,0,1,15.27-20.51q9.33-7.91,18.87-7.91c2,0,3.37.63,4.09,1.89a8,8,0,0,1,1.07,4,12.3,12.3,0,0,1-.38,3.4c-.26.83-.56,1.24-.91,1.24s-.5-.26-.64-.77a21.55,21.55,0,0,1-.47-2.75,7,7,0,0,0-.86-2.8,2.41,2.41,0,0,0-2.15-.9q-7.92,0-16.3,7.74a62,62,0,0,0-13.93,19.56,54.15,54.15,0,0,0-5.55,23.09q0,7.14,2.36,11.14t8.56,4q6.7,0,12.47-5.25A54.76,54.76,0,0,0,755,112.43q4.51-7.7,10.71-20.42a111.45,111.45,0,0,0-12.3,3.44L750,96.56l-3.18,1q-3.18,1.11-5.16,1.67a12.25,12.25,0,0,1-3.27.56,1.48,1.48,0,0,1-1.33-.81,3.55,3.55,0,0,1-.47-1.77c0-.8,1.17-1.62,3.52-2.45A95.92,95.92,0,0,1,750.69,92c1.84-.4,4.47-1.09,7.91-2.07.58-.17,2.31-.63,5.21-1.37a28.62,28.62,0,0,1,6.06-1.12h1a1.21,1.21,0,0,1,1.16.64,4.51,4.51,0,0,1,.34,2c0,.52-.34,1-1,1.38l-.08,6.62q-.27,6.7-.26,14.62v16.94C771.1,131.62,771.16,132.6,771.16,132.6Z"/><path d="M817.73,115a21.15,21.15,0,0,1-8.09,6.8,26,26,0,0,1-11.82,2.62,34.68,34.68,0,0,1-8.86-.9c-2.18-.61-3.27-1.45-3.27-2.54a6.93,6.93,0,0,1,1.25-2.88c.83-1.35,1.48-2,1.94-2,.68,0,1,.14,1,.43a1,1,0,0,1-.3.6,1,1,0,0,0-.31.69c0,.17.36.43,1.08.77a14.85,14.85,0,0,0,3.31,1,29.81,29.81,0,0,0,5.42.43,19.11,19.11,0,0,0,8.9-2,15.62,15.62,0,0,0,5.89-5,10.35,10.35,0,0,0,2.06-5.85q0-3.69-3.56-6.36T800.92,95.7q-7.67-2.49-11.83-4.17a21,21,0,0,1-6.75-4.12,8,8,0,0,1-2.58-6q0-4.73,5.33-9.33a46.93,46.93,0,0,1,27.69-10.37c2.3,0,3.53.46,3.7,1.38a17.09,17.09,0,0,1,.26,3.1c0,.86-.32,1.29-1,1.29a2.2,2.2,0,0,1-1-.3c-.37-.2-.7-.36-1-.48s-.75-.23-1.21-.34a8.41,8.41,0,0,0-2-.17,31.9,31.9,0,0,0-10.75,2.32A43.21,43.21,0,0,0,789,74.29c-3.06,2.29-4.6,4.5-4.6,6.62a5.81,5.81,0,0,0,2.11,4.47,17.56,17.56,0,0,0,5.63,3.23q3.52,1.33,10,3.31,9.46,2.76,14,6.19t4.52,8.43A14.76,14.76,0,0,1,817.73,115Z"/></g></svg>
