<svg xmlns="http://www.w3.org/2000/svg" width="270" height="290" viewBox="0 0 270 290"><defs><style>.cls-1{fill:#c69c6d;}.cls-2{fill:#754c24;}.cls-3{fill:#f2f2f2;}.cls-4{fill:none;stroke:#000;stroke-miterlimit:10;stroke-width:3px;}.cls-5{fill:#ffeddf;}</style></defs><title>svamp</title><g id="Layer_1" data-name="Layer 1"><path class="cls-1" d="M102.48,142.17c-8.91,20.17-24.63,64.37-8,109.74a118,118,0,0,0,8,17.39,40.52,40.52,0,0,0,50.18,0,67.74,67.74,0,0,0,12.71-15.39c10.59-17.63,10-35.33,9.37-47.5-1.45-29.81-14.14-52.44-22.08-64.24Z"/><path class="cls-2" d="M40.25,35.12A75.63,75.63,0,0,0,25.53,49.84c-26.57,35.23-12.94,82.85-10,92.33,5.23.85,15.07,2.41,27.44,4,43.11,5.61,100.41,12.68,169.28,2.67,7.64-1.11,20.35-3.14,36.13-6.69a81.11,81.11,0,0,0,8-41.48S254.14,71.79,233,49.84a102.71,102.71,0,0,0-13.38-11.38,183.31,183.31,0,0,0-38.81-19.4C169.17,14.9,153.5,9.42,132.59,9c-20-.38-34.91,4.1-50.19,8.7A230.41,230.41,0,0,0,40.25,35.12Z"/><circle class="cls-3" cx="79.06" cy="79.28" r="15.39"/><circle class="cls-3" cx="133.26" cy="79.28" r="15.39"/><circle cx="131.25" cy="81.29" r="8.03"/><circle cx="79.06" cy="81.29" r="8.03"/><path class="cls-4" d="M158,110.28c3,11-5.67,23-19.45,26.84s-27.44-2-30.48-13"/><ellipse class="cls-5" cx="227.38" cy="73.81" rx="6.73" ry="30.28" transform="translate(-6.44 123.58) rotate(-30)"/></g></svg>
