<svg xmlns="http://www.w3.org/2000/svg" width="270" height="360" viewBox="0 0 270 360"><defs><style>.cls-1{fill:#004237;}.cls-2{fill:#006837;}.cls-3{fill:#f2f2f2;}.cls-4{fill:none;stroke:#000;stroke-miterlimit:10;stroke-width:3px;}</style></defs><title>ukrudt</title><g id="Layer_1" data-name="Layer 1"><polygon class="cls-1" points="130.41 347.5 50.17 254.01 111.27 284.19 6 200.27 77.41 216.47 15.57 142.85 68.2 157.21 20.72 51.57 78.14 122.97 153.97 17.7 139.24 133.28 194.46 98.68 169.43 188.49 206.97 167.88 164.27 249.59 258.5 188.49 164.27 297.44 219.48 284.19 176.05 347.5 130.41 347.5"/><polygon class="cls-2" points="127.1 347.5 54.95 271.68 122.68 313.64 44.65 238.55 103.54 252.54 27.72 194.38 91.03 204.69 27.72 111.93 77.04 156.84 27.72 33.16 84.4 122.97 85.14 5.93 116.79 133.28 190.41 46.41 152.86 162.73 213.96 122.97 160.96 222.35 225 189.23 183.04 258.43 225 250.33 176.42 313.64 225 305.54 172 347.5 127.1 347.5"/><circle class="cls-3" cx="98.39" cy="173.77" r="16.93"/><circle class="cls-3" cx="132.25" cy="171.56" r="16.93"/><circle cx="126.36" cy="176.71" r="8.83"/><circle cx="98.39" cy="180.39" r="8.83"/><path class="cls-4" d="M105.32,231.85c-3.76-12,5.36-25.52,20.37-30.24s30.24,1.17,34,13.15"/><line class="cls-4" x1="139.98" y1="143.95" x2="112.74" y2="166.04"/><line class="cls-4" x1="115.13" y1="163.63" x2="83.12" y2="149.31"/></g></svg>
