<svg xmlns="http://www.w3.org/2000/svg" width="1170" height="190" viewBox="0 0 1170 190"><defs><style>.cls-1{fill:#f15a24;}</style></defs><title>you won</title><g id="Layer_1" data-name="Layer 1"><path class="cls-1" d="M148.22,12.33Q158.95,19.77,159,26.78q0,4.16-5,11.61l-47.3,70.73V151a63.41,63.41,0,0,1-.33,7.56,17.5,17.5,0,0,1-2.08,5.8,9.63,9.63,0,0,1-5.91,4.6,38.2,38.2,0,0,1-11.17,1.31A38.11,38.11,0,0,1,76,168.91,9.46,9.46,0,0,1,70,164.2,18.34,18.34,0,0,1,68,158.29a68.78,68.78,0,0,1-.32-7.78V109.12L20.32,38.39q-5-7.45-5-11.61,0-7,9.63-13.47t13.8-6.46A11,11,0,0,1,45.29,8.6q3.72,2.42,7.88,9l34,54.31,33.94-54.31q4.16-6.57,7.23-8.65a12.33,12.33,0,0,1,7.12-2.08Q139.46,6.85,148.22,12.33Z"/><path class="cls-1" d="M246.33,7.29q32.4,0,56.28,23.43t23.87,58.15q0,34.71-22.77,59.13t-56.07,24.41q-33.28,0-56.61-24.09T167.71,91a88.21,88.21,0,0,1,6.57-34.06A78.92,78.92,0,0,1,191.8,30.28,82.09,82.09,0,0,1,217,13.42,73.43,73.43,0,0,1,246.33,7.29ZM206.47,89.85q0,19.5,12.59,31.65t28.14,12.15q15.56,0,28-11.82t12.48-31.76q0-19.92-12.59-32T247,46.05q-15.54,0-28,12.16T206.47,89.85Z"/><path class="cls-1" d="M445.62,15.17A11.18,11.18,0,0,1,452,10.35,35.23,35.23,0,0,1,462.37,9a36.89,36.89,0,0,1,10,1.09,17.67,17.67,0,0,1,5.7,2.63,8.71,8.71,0,0,1,2.85,4.6q1.31,3.74,1.31,11.39V94.89q0,28.9-18,52.56a65.29,65.29,0,0,1-22.56,18.07,67.43,67.43,0,0,1-30.55,6.89,65.84,65.84,0,0,1-30.44-7A63.46,63.46,0,0,1,358.45,147a84.34,84.34,0,0,1-17.74-52.56V28.53a65.87,65.87,0,0,1,.33-7.77A17.54,17.54,0,0,1,343.12,15a9.63,9.63,0,0,1,5.92-4.6,48.28,48.28,0,0,1,22.34,0,8.8,8.8,0,0,1,5.69,4.6q2.63,5,2.63,13.8v65.7a52.24,52.24,0,0,0,6.57,25.4,24.59,24.59,0,0,0,9.85,9.86,31,31,0,0,0,15.55,3.72q16,0,23.87-11.82t7.89-27.38v-67Q443.43,18.67,445.62,15.17Z"/><path class="cls-1" d="M802.58,10.13q14.67,5.26,14.67,14,0,2.85-2.62,10.73l-42,121.55a24.17,24.17,0,0,1-1.53,3.72c-.74,1.46-2.67,3.39-5.81,5.8a19,19,0,0,1-22.34,0q-4.71-3.62-6.24-7.11L711,83.28q-24.31,71.83-24.75,73.15a19.2,19.2,0,0,1-2,3.72,25.4,25.4,0,0,1-3.5,4.38,16.45,16.45,0,0,1-12.05,5q-7,0-11.49-3.29t-6-6.57l-1.53-3.28L607.45,34.88Q605,27.65,605,24.15q0-8.76,14.68-13.8a35.86,35.86,0,0,1,11.49-2.19,9.42,9.42,0,0,1,7.89,3.51q2.73,3.49,4.93,10.73l24.09,73.14L692,23.49q3.06-9.19,11.17-12.7a22.87,22.87,0,0,1,9.08-1.53,17,17,0,0,1,10.41,3.61q4.82,3.62,6.13,7.12L754,96,778.05,22.4q1.76-5,2.85-7.45a13.1,13.1,0,0,1,4.05-4.7A11.56,11.56,0,0,1,792.29,8,30.52,30.52,0,0,1,802.58,10.13Z"/><path class="cls-1" d="M904.63,7.29q32.42,0,56.29,23.43t23.87,58.15q0,34.71-22.78,59.13T906,172.41q-33.3,0-56.61-24.09T826,91a88.21,88.21,0,0,1,6.57-34.06A79.07,79.07,0,0,1,850.1,30.28a82.13,82.13,0,0,1,25.19-16.86A73.42,73.42,0,0,1,904.63,7.29ZM864.78,89.85q0,19.5,12.59,31.65t28.14,12.15q15.56,0,28-11.82T946,90.07q0-19.92-12.6-32T905.29,46.05q-15.56,0-28,12.16T864.78,89.85Z"/><path class="cls-1" d="M1102.72,15.94a10.42,10.42,0,0,1,6.24-5.15,35.23,35.23,0,0,1,10.4-1.31,37.86,37.86,0,0,1,10.08,1.09,16.18,16.18,0,0,1,5.69,2.63,9,9,0,0,1,2.74,4.6q1.31,3.51,1.31,11.17V150.51a63,63,0,0,1-.33,7.67,17.58,17.58,0,0,1-2.08,5.69q-3.06,5.92-17.08,5.92-8.54,0-11.83-1.32a12.71,12.71,0,0,1-5.47-4.16q-49.28-65.7-64.82-85.85v72.05a63,63,0,0,1-.33,7.67,17.82,17.82,0,0,1-2.08,5.69q-3.08,5.92-17.08,5.92-13.59,0-16.65-5.92a17.45,17.45,0,0,1-2.08-5.91,66.26,66.26,0,0,1-.33-7.67V28.09q0-8.31,2.08-12.15a10.48,10.48,0,0,1,6.24-5.15,36.67,36.67,0,0,1,10.74-1.31,36.06,36.06,0,0,1,10.4,1.2,13.51,13.51,0,0,1,5.36,2.74,59.43,59.43,0,0,1,5,5.69q46.2,62.87,61.76,83v-74Q1100.64,19.78,1102.72,15.94Z"/></g></svg>